<?xml version="1.0" standalone="no"?>
 <!DOCTYPE svg PUBLIC "-//W3C//DTD SVG 1.1//EN" 
 "http://www.w3.org/Graphics/SVG/1.1/DTD/svg11.dtd"> 
<svg xmlns="http://www.w3.org/2000/svg" version="1.1" 
    width="41.9989cm" height="29.7002cm" viewBox="0 0 165350 116930 ">
<title>SVG Picture created as cartuchnik-B_Cu.svg date 2013/12/28 18:51:49 </title>
  <desc>Picture generated by PCBNEW </desc>
<g style="fill:#000000; fill-opacity:1;stroke:#000000; stroke-opacity:1;
stroke-linecap:round; stroke-linejoin:round; "
 transform="translate(0 0) scale(1 1)">
</g>
<g style="fill:#000000; fill-opacity:0.0; 
stroke:#000000; stroke-width:118.11; stroke-opacity:1; 
stroke-linecap:round; stroke-linejoin:round;">
<path d="M108980 76993
L109018 77031
L109130 77068
L109205 77068
L109318 77031
L109393 76956
L109430 76881
L109468 76731
L109468 76618
L109430 76468
L109393 76393
L109318 76318
L109205 76281
L109130 76281
L109018 76318
L108980 76356
" />
<path d="M108680 76843
L108305 76843
" />
<path d="M108755 77068
L108493 76281
L108230 77068
" />
<path d="M107518 77068
L107781 76693
" />
<path d="M107968 77068
L107968 76281
L107668 76281
L107593 76318
L107556 76356
L107518 76431
L107518 76543
L107556 76618
L107593 76656
L107668 76693
L107968 76693
" />
<path d="M107293 76281
L106843 76281
" />
<path d="M107068 77068
L107068 76281
" />
<path d="M106581 76281
L106581 76918
L106543 76993
L106506 77031
L106431 77068
L106281 77068
L106206 77031
L106168 76993
L106131 76918
L106131 76281
" />
<path d="M105793 77031
L105681 77068
L105493 77068
L105418 77031
L105381 76993
L105343 76918
L105343 76843
L105381 76768
L105418 76731
L105493 76693
L105643 76656
L105718 76618
L105756 76581
L105793 76506
L105793 76431
L105756 76356
L105718 76318
L105643 76281
L105456 76281
L105343 76318
" />
<path d="M105006 77068
L105006 76281
" />
<path d="M105006 76656
L104556 76656
" />
<path d="M104556 77068
L104556 76281
" />
<path d="M104181 77068
L104181 76281
L103731 77068
L103731 76281
" />
<path d="M103356 77068
L103356 76281
" />
<path d="M102981 77068
L102981 76281
" />
<path d="M102531 77068
L102869 76618
" />
<path d="M102531 76281
L102981 76731
" />
</g>
<g style="fill:#000000; fill-opacity:0.0; 
stroke:#000000; stroke-width:39.3701; stroke-opacity:1; 
stroke-linecap:round; stroke-linejoin:round;">
<path d="M92750 71000
L92750 71500
" />
<path d="M120750 71000
L120750 71500
" />
<path d="M92750 98000
L92750 101500
" />
<path d="M111750 98000
L111750 101500
" />
<path d="M120750 71500
L120750 86250
" />
<path d="M111750 88000
L111750 86250
" />
<path d="M92750 91750
L92750 98000
" />
<path d="M111750 91750
L111750 98000
" />
<path d="M92750 71000
L120750 71000
" />
<path d="M111750 101500
L92750 101500
" />
<path d="M111750 88000
L111750 91750
" />
<path d="M120750 86250
L111750 86250
" />
<path d="M92750 91750
L92750 71500
" />
</g>
<g style="fill:#000000; fill-opacity:0.0; 
stroke:#000000; stroke-width:59.0551; stroke-opacity:1; 
stroke-linecap:round; stroke-linejoin:round;">
</g>
<g style="fill:#000000; fill-opacity:1.0; 
stroke:#000000; stroke-width:59.0551; stroke-opacity:1; 
stroke-linecap:round; stroke-linejoin:round;">
<polyline style="fill-rule:evenodd;"
points="110429,101220
110429,98279
111070,98279
111070,101220
110429,101220
" /> 
<polyline style="fill-rule:evenodd;"
points="109429,101220
109429,98279
110070,98279
110070,101220
109429,101220
" /> 
<polyline style="fill-rule:evenodd;"
points="108429,101220
108429,98279
109070,98279
109070,101220
108429,101220
" /> 
<polyline style="fill-rule:evenodd;"
points="107429,101220
107429,98279
108070,98279
108070,101220
107429,101220
" /> 
<polyline style="fill-rule:evenodd;"
points="106429,101220
106429,98279
107070,98279
107070,101220
106429,101220
" /> 
<polyline style="fill-rule:evenodd;"
points="105429,101220
105429,98279
106070,98279
106070,101220
105429,101220
" /> 
<polyline style="fill-rule:evenodd;"
points="104429,101220
104429,98279
105070,98279
105070,101220
104429,101220
" /> 
<polyline style="fill-rule:evenodd;"
points="103429,101220
103429,98279
104070,98279
104070,101220
103429,101220
" /> 
<polyline style="fill-rule:evenodd;"
points="102429,101220
102429,98279
103070,98279
103070,101220
102429,101220
" /> 
<polyline style="fill-rule:evenodd;"
points="101429,101220
101429,98279
102070,98279
102070,101220
101429,101220
" /> 
<polyline style="fill-rule:evenodd;"
points="100429,101220
100429,98279
101070,98279
101070,101220
100429,101220
" /> 
<polyline style="fill-rule:evenodd;"
points="99429,101220
99429,98279
100070,98279
100070,101220
99429,101220
" /> 
<polyline style="fill-rule:evenodd;"
points="98429,101220
98429,98279
99070,98279
99070,101220
98429,101220
" /> 
<polyline style="fill-rule:evenodd;"
points="97429,101220
97429,98279
98070,98279
98070,101220
97429,101220
" /> 
<polyline style="fill-rule:evenodd;"
points="96429,101220
96429,98279
97070,98279
97070,101220
96429,101220
" /> 
<polyline style="fill-rule:evenodd;"
points="95429,101220
95429,98279
96070,98279
96070,101220
95429,101220
" /> 
<polyline style="fill-rule:evenodd;"
points="94429,101220
94429,98279
95070,98279
95070,101220
94429,101220
" /> 
<polyline style="fill-rule:evenodd;"
points="93429,101220
93429,98279
94070,98279
94070,101220
93429,101220
" /> 
<circle cx="119750" cy="81500" r="320.472" /> 
<circle cx="118750" cy="81500" r="320.472" /> 
<circle cx="117750" cy="81500" r="320.472" /> 
<circle cx="116750" cy="81500" r="320.472" /> 
<circle cx="115750" cy="81500" r="320.472" /> 
<circle cx="114750" cy="81500" r="320.472" /> 
<circle cx="113750" cy="81500" r="320.472" /> 
<circle cx="112750" cy="81500" r="320.472" /> 
<circle cx="111750" cy="81500" r="320.472" /> 
<circle cx="110750" cy="81500" r="320.472" /> 
<circle cx="109750" cy="81500" r="320.472" /> 
<circle cx="108750" cy="81500" r="320.472" /> 
<circle cx="107750" cy="81500" r="320.472" /> 
<circle cx="106750" cy="81500" r="320.472" /> 
<circle cx="105750" cy="81500" r="320.472" /> 
<circle cx="104750" cy="81500" r="320.472" /> 
<circle cx="103750" cy="81500" r="320.472" /> 
<circle cx="102750" cy="81500" r="320.472" /> 
<circle cx="101750" cy="81500" r="320.472" /> 
<circle cx="100750" cy="81500" r="320.472" /> 
<circle cx="99750" cy="81500" r="320.472" /> 
<circle cx="98750" cy="81500" r="320.472" /> 
<circle cx="97750" cy="81500" r="320.472" /> 
<circle cx="96750" cy="81500" r="320.472" /> 
<circle cx="95750" cy="81500" r="320.472" /> 
<circle cx="94750" cy="81500" r="320.472" /> 
<circle cx="93750" cy="81500" r="320.472" /> 
<circle cx="119750" cy="72250" r="320.472" /> 
<circle cx="118750" cy="72250" r="320.472" /> 
<circle cx="117750" cy="72250" r="320.472" /> 
<circle cx="116750" cy="72250" r="320.472" /> 
<circle cx="115750" cy="72250" r="320.472" /> 
<circle cx="114750" cy="72250" r="320.472" /> 
<circle cx="113750" cy="72250" r="320.472" /> 
<circle cx="112750" cy="72250" r="320.472" /> 
<circle cx="110750" cy="72250" r="320.472" /> 
<circle cx="109750" cy="72250" r="320.472" /> 
<circle cx="108750" cy="72250" r="320.472" /> 
<circle cx="107750" cy="72250" r="320.472" /> 
<circle cx="106750" cy="72250" r="320.472" /> 
<circle cx="105750" cy="72250" r="320.472" /> 
<circle cx="104750" cy="72250" r="320.472" /> 
<circle cx="103750" cy="72250" r="320.472" /> 
<circle cx="102750" cy="72250" r="320.472" /> 
<circle cx="101750" cy="72250" r="320.472" /> 
<circle cx="100750" cy="72250" r="320.472" /> 
<circle cx="99750" cy="72250" r="320.472" /> 
<circle cx="98750" cy="72250" r="320.472" /> 
<circle cx="97750" cy="72250" r="320.472" /> 
<circle cx="96750" cy="72250" r="320.472" /> 
<circle cx="95750" cy="72250" r="320.472" /> 
<circle cx="94750" cy="72250" r="320.472" /> 
<circle cx="93750" cy="72250" r="320.472" /> 
<circle cx="111750" cy="72250" r="320.472" /> 
<circle cx="93750" cy="74500" r="320.472" /> 
<circle cx="94750" cy="74500" r="320.472" /> 
<circle cx="95750" cy="74500" r="320.472" /> 
<circle cx="93750" cy="75500" r="320.472" /> 
<circle cx="94750" cy="75500" r="320.472" /> 
<circle cx="95750" cy="75500" r="320.472" /> 
<circle cx="93750" cy="76500" r="320.472" /> 
<circle cx="94750" cy="76500" r="320.472" /> 
<circle cx="95750" cy="76500" r="320.472" /> 
<circle cx="93750" cy="77500" r="320.472" /> 
<circle cx="94750" cy="77500" r="320.472" /> 
<circle cx="95750" cy="77500" r="320.472" /> 
<circle cx="93750" cy="78500" r="320.472" /> 
<circle cx="94750" cy="78500" r="320.472" /> 
<circle cx="95750" cy="78500" r="320.472" /> 
<circle cx="93750" cy="79500" r="320.472" /> 
<circle cx="94750" cy="79500" r="320.472" /> 
<circle cx="95750" cy="79500" r="320.472" /> 
<circle cx="96750" cy="79500" r="320.472" /> 
<polyline style="fill-rule:evenodd;"
points="109501,95129
109612,95129
109612,95370
109501,95370
109501,95129
" /> 
<polyline style="fill-rule:evenodd;"
points="109501,94529
109612,94529
109612,94770
109501,94770
109501,94529
" /> 
<polyline style="fill-rule:evenodd;"
points="109187,95129
109298,95129
109298,95370
109187,95370
109187,95129
" /> 
<polyline style="fill-rule:evenodd;"
points="109187,94529
109298,94529
109298,94770
109187,94770
109187,94529
" /> 
<polyline style="fill-rule:evenodd;"
points="109816,95129
109927,95129
109927,95370
109816,95370
109816,95129
" /> 
<polyline style="fill-rule:evenodd;"
points="108872,95129
108983,95129
108983,95370
108872,95370
108872,95129
" /> 
<polyline style="fill-rule:evenodd;"
points="108872,94529
108983,94529
108983,94770
108872,94770
108872,94529
" /> 
<polyline style="fill-rule:evenodd;"
points="109816,94529
109927,94529
109927,94770
109816,94770
109816,94529
" /> 
<polyline style="fill-rule:evenodd;"
points="103801,95179
103912,95179
103912,95420
103801,95420
103801,95179
" /> 
<polyline style="fill-rule:evenodd;"
points="103801,94579
103912,94579
103912,94820
103801,94820
103801,94579
" /> 
<polyline style="fill-rule:evenodd;"
points="103487,95179
103598,95179
103598,95420
103487,95420
103487,95179
" /> 
<polyline style="fill-rule:evenodd;"
points="103487,94579
103598,94579
103598,94820
103487,94820
103487,94579
" /> 
<polyline style="fill-rule:evenodd;"
points="104116,95179
104227,95179
104227,95420
104116,95420
104116,95179
" /> 
<polyline style="fill-rule:evenodd;"
points="103172,95179
103283,95179
103283,95420
103172,95420
103172,95179
" /> 
<polyline style="fill-rule:evenodd;"
points="103172,94579
103283,94579
103283,94820
103172,94820
103172,94579
" /> 
<polyline style="fill-rule:evenodd;"
points="104116,94579
104227,94579
104227,94820
104116,94820
104116,94579
" /> 
<polyline style="fill-rule:evenodd;"
points="101501,95179
101612,95179
101612,95420
101501,95420
101501,95179
" /> 
<polyline style="fill-rule:evenodd;"
points="101501,94579
101612,94579
101612,94820
101501,94820
101501,94579
" /> 
<polyline style="fill-rule:evenodd;"
points="101187,95179
101298,95179
101298,95420
101187,95420
101187,95179
" /> 
<polyline style="fill-rule:evenodd;"
points="101187,94579
101298,94579
101298,94820
101187,94820
101187,94579
" /> 
<polyline style="fill-rule:evenodd;"
points="101816,95179
101927,95179
101927,95420
101816,95420
101816,95179
" /> 
<polyline style="fill-rule:evenodd;"
points="100872,95179
100983,95179
100983,95420
100872,95420
100872,95179
" /> 
<polyline style="fill-rule:evenodd;"
points="100872,94579
100983,94579
100983,94820
100872,94820
100872,94579
" /> 
<polyline style="fill-rule:evenodd;"
points="101816,94579
101927,94579
101927,94820
101816,94820
101816,94579
" /> 
<polyline style="fill-rule:evenodd;"
points="95501,95129
95612,95129
95612,95370
95501,95370
95501,95129
" /> 
<polyline style="fill-rule:evenodd;"
points="95501,94529
95612,94529
95612,94770
95501,94770
95501,94529
" /> 
<polyline style="fill-rule:evenodd;"
points="95187,95129
95298,95129
95298,95370
95187,95370
95187,95129
" /> 
<polyline style="fill-rule:evenodd;"
points="95187,94529
95298,94529
95298,94770
95187,94770
95187,94529
" /> 
<polyline style="fill-rule:evenodd;"
points="95816,95129
95927,95129
95927,95370
95816,95370
95816,95129
" /> 
<polyline style="fill-rule:evenodd;"
points="94872,95129
94983,95129
94983,95370
94872,95370
94872,95129
" /> 
<polyline style="fill-rule:evenodd;"
points="94872,94529
94983,94529
94983,94770
94872,94770
94872,94529
" /> 
<polyline style="fill-rule:evenodd;"
points="95816,94529
95927,94529
95927,94770
95816,94770
95816,94529
" /> 
<polyline style="fill-rule:evenodd;"
points="93479,86729
94020,86729
94020,87270
93479,87270
93479,86729
" /> 
<circle cx="93750" cy="88000" r="270.472" /> 
<circle cx="93750" cy="89000" r="270.472" /> 
<circle cx="96216.3" cy="83866.2" r="265.748" /> 
<circle cx="98510.7" cy="92731.2" r="265.748" /> 
<circle cx="101402" cy="91659.2" r="265.748" /> 
<circle cx="107068" cy="93367.8" r="265.748" /> 
<circle cx="109035" cy="89036.3" r="265.748" /> 
<circle cx="109655" cy="91015.9" r="265.748" /> 
<circle cx="106240" cy="85323.1" r="265.748" /> 
<circle cx="105234" cy="86070" r="265.748" /> 
<circle cx="100923" cy="94123.6" r="265.748" /> 
<circle cx="103656" cy="83457" r="265.748" /> 
<circle cx="98078" cy="89420.4" r="265.748" /> 
<circle cx="96905.4" cy="93964" r="265.748" /> 
<circle cx="97750" cy="97853" r="265.748" /> 
<circle cx="118552" cy="75327.7" r="265.748" /> 
<circle cx="97643.2" cy="94344.9" r="265.748" /> 
</g>
<g style="fill:#000000; fill-opacity:1.0; 
stroke:#000000; stroke-width:129.921; stroke-opacity:1; 
stroke-linecap:round; stroke-linejoin:round;">
<path d="M96250 83832
L96216 83866
" />
<path d="M96250 81269
L96250 83832
" />
<path d="M96892 80626
L96250 81269
" />
<path d="M117876 80626
L96892 80626
" />
<path d="M118750 81500
L117876 80626
" />
</g>
<g style="fill:#000000; fill-opacity:1.0; 
stroke:#000000; stroke-width:100; stroke-opacity:1; 
stroke-linecap:round; stroke-linejoin:round;">
<path d="M101872 94700
L101872 94417
" />
<path d="M101872 93251
L101872 94417
" />
<path d="M100786 92165
L101872 93251
" />
<path d="M100786 91381
L100786 92165
" />
<path d="M110250 81918
L100786 91381
" />
<path d="M110250 81315
L110250 81918
" />
<path d="M110558 81007
L110250 81315
" />
<path d="M111257 81007
L110558 81007
" />
<path d="M111750 81500
L111257 81007
" />
<path d="M102750 96460
L102750 99750
" />
<path d="M101872 95582
L102750 96460
" />
<path d="M101872 95300
L101872 95582
" />
<path d="M110750 81676
L110750 81500
" />
<path d="M100970 91456
L110750 81676
" />
<path d="M100970 91999
L100970 91456
" />
<path d="M103227 94257
L100970 91999
" />
<path d="M103227 94700
L103227 94257
" />
<path d="M95872 93377
L107750 81500
" />
<path d="M95872 94650
L95872 93377
" />
<path d="M96750 96410
L96750 99750
" />
<path d="M95872 95532
L96750 96410
" />
<path d="M95872 95250
L95872 95532
" />
<path d="M95557 92692
L106750 81500
" />
<path d="M95557 94650
L95557 92692
" />
<path d="M95557 97924
L95750 98117
" />
<path d="M95557 95250
L95557 97924
" />
<path d="M95750 99750
L95750 98117
" />
<path d="M95242 94650
L95242 94932
" />
<path d="M96477 93772
L108750 81500
" />
<path d="M96477 94477
L96477 93772
" />
<path d="M96022 94932
L96477 94477
" />
<path d="M95242 94932
L96022 94932
" />
<path d="M95242 97624
L94750 98117
" />
<path d="M95242 95250
L95242 97624
" />
<path d="M94750 99750
L94750 98117
" />
<path d="M103227 95300
L103227 95582
" />
<path d="M103750 99750
L103750 98117
" />
<path d="M103227 97595
L103750 98117
" />
<path d="M103227 95582
L103227 97595
" />
<path d="M103542 94700
L103542 94982
" />
<path d="M100762 94982
L98510 92731
" />
<path d="M103542 94982
L100762 94982
" />
<path d="M104750 96789
L104750 99750
" />
<path d="M103542 95582
L104750 96789
" />
<path d="M103542 95300
L103542 95582
" />
<path d="M103857 94113
L101402 91659
" />
<path d="M103857 94700
L103857 94113
" />
<path d="M105750 97475
L105750 99750
" />
<path d="M103857 95582
L105750 97475
" />
<path d="M103857 95300
L103857 95582
" />
<path d="M106019 94417
L107068 93367
" />
<path d="M104172 94417
L106019 94417
" />
<path d="M104172 94700
L104172 94417
" />
<path d="M106706 98117
L106750 98117
" />
<path d="M104172 95582
L106706 98117
" />
<path d="M104172 95300
L104172 95582
" />
<path d="M106750 99750
L106750 98117
" />
<path d="M108927 89143
L109034 89036
" />
<path d="M108927 94650
L108927 89143
" />
<path d="M107750 96710
L107750 99750
" />
<path d="M108927 95532
L107750 96710
" />
<path d="M108927 95250
L108927 95532
" />
<path d="M109242 94650
L109242 94932
" />
<path d="M111230 83019
L112750 81500
" />
<path d="M111230 93733
L111230 83019
" />
<path d="M110030 94932
L111230 93733
" />
<path d="M109242 94932
L110030 94932
" />
<path d="M109242 97624
L108750 98117
" />
<path d="M109242 95250
L109242 97624
" />
<path d="M108750 99750
L108750 98117
" />
<path d="M109557 91113
L109654 91015
" />
<path d="M109557 94650
L109557 91113
" />
<path d="M109557 97924
L109750 98117
" />
<path d="M109557 95250
L109557 97924
" />
<path d="M109750 99750
L109750 98117
" />
<path d="M94927 88322
L101750 81500
" />
<path d="M94927 94650
L94927 88322
" />
<path d="M93750 96710
L93750 99750
" />
<path d="M94927 95532
L93750 96710
" />
<path d="M94927 95250
L94927 95532
" />
<path d="M101557 94700
L101557 94417
" />
<path d="M106239 85670
L106239 85323
" />
<path d="M100597 91312
L106239 85670
" />
<path d="M100597 92235
L100597 91312
" />
<path d="M101557 93194
L100597 92235
" />
<path d="M101557 94417
L101557 93194
" />
<path d="M101557 97924
L101750 98117
" />
<path d="M101557 95300
L101557 97924
" />
<path d="M101750 99750
L101750 98117
" />
<path d="M101242 94700
L101242 94417
" />
<path d="M100411 90892
L105234 86070
" />
<path d="M100411 92308
L100411 90892
" />
<path d="M101351 93247
L100411 92308
" />
<path d="M101351 94308
L101351 93247
" />
<path d="M101242 94417
L101351 94308
" />
<path d="M101242 97624
L100750 98117
" />
<path d="M101242 95300
L101242 97624
" />
<path d="M100750 99750
L100750 98117
" />
<path d="M100927 94700
L100927 94417
" />
<path d="M100923 94412
L100923 94123
" />
<path d="M100927 94417
L100923 94412
" />
<path d="M99750 96760
L99750 99750
" />
<path d="M100927 95582
L99750 96760
" />
<path d="M100927 95300
L100927 95582
" />
<path d="M103267 83067
L103656 83457
" />
<path d="M103267 81315
L103267 83067
" />
<path d="M102968 81017
L103267 81315
" />
<path d="M101534 81017
L102968 81017
" />
<path d="M101267 81284
L101534 81017
" />
<path d="M101267 81688
L101267 81284
" />
<path d="M98656 84298
L101267 81688
" />
<path d="M95854 84298
L98656 84298
" />
<path d="M93242 81686
L95854 84298
" />
<path d="M93242 72072
L93242 81686
" />
<path d="M93547 71767
L93242 72072
" />
<path d="M98267 71767
L93547 71767
" />
<path d="M98750 72250
L98267 71767
" />
<path d="M98077 86172
L98077 89420
" />
<path d="M102750 81500
L98077 86172
" />
<path d="M96905 93719
L96905 93963
" />
<path d="M105810 84814
L96905 93719
" />
<path d="M106435 84814
L105810 84814
" />
<path d="M109750 81500
L106435 84814
" />
<path d="M97425 80824
L96750 81500
" />
<path d="M111757 80824
L97425 80824
" />
<path d="M112250 81317
L111757 80824
" />
<path d="M112250 81741
L112250 81317
" />
<path d="M110089 83901
L112250 81741
" />
<path d="M110089 94149
L110089 83901
" />
<path d="M109872 94367
L110089 94149
" />
<path d="M109872 94650
L109872 94367
" />
<path d="M110750 96410
L110750 99750
" />
<path d="M109872 95532
L110750 96410
" />
<path d="M109872 95250
L109872 95532
" />
</g>
<g style="fill:#000000; fill-opacity:1.0; 
stroke:#000000; stroke-width:129.921; stroke-opacity:1; 
stroke-linecap:round; stroke-linejoin:round;">
<path d="M97750 98102
L98750 98102
" />
<path d="M98750 99750
L98750 98102
" />
<path d="M97750 99750
L97750 98926
" />
<path d="M97750 98926
L97750 98102
" />
<path d="M97750 98102
L97750 97852
" />
<path d="M118551 80301
L118551 75327
" />
<path d="M119750 81500
L118551 80301
" />
<path d="M94950 73450
L93750 72250
" />
<path d="M116674 73450
L94950 73450
" />
<path d="M118551 75327
L116674 73450
" />
<path d="M97750 94451
L97643 94344
" />
<path d="M97750 97852
L97750 94451
" />
</g>
<g style="fill:#000000; fill-opacity:1.0; 
stroke:#000000; stroke-width:59.0551; stroke-opacity:1; 
stroke-linecap:round; stroke-linejoin:round;">
<polyline style="fill-rule:evenodd;"
points="92720,70769
92659,70781
92582,70832
92531,70909
92519,70970
92519,70769
92720,70769
" /> 
</g>
<g style="fill:#000000; fill-opacity:0.0; 
stroke:#000000; stroke-width:39.3701; stroke-opacity:1; 
stroke-linecap:round; stroke-linejoin:round;">
<polyline fill="none;"
points="92720,70769
92659,70781
92582,70832
92531,70909
92519,70970
92519,70769
92720,70769
" /> 
</g>
<g style="fill:#000000; fill-opacity:1.0; 
stroke:#000000; stroke-width:59.0551; stroke-opacity:1; 
stroke-linecap:round; stroke-linejoin:round;">
<polyline style="fill-rule:evenodd;"
points="94471,75000
94470,75002
94429,75019
94269,75178
94252,75220
94250,75221
94247,75220
94230,75179
94071,75019
94029,75002
94028,75000
94029,74997
94070,74980
94230,74821
94247,74779
94250,74778
94252,74779
94269,74820
94428,74980
94470,74997
94471,75000
" /> 
</g>
<g style="fill:#000000; fill-opacity:0.0; 
stroke:#000000; stroke-width:39.3701; stroke-opacity:1; 
stroke-linecap:round; stroke-linejoin:round;">
<polyline fill="none;"
points="94471,75000
94470,75002
94429,75019
94269,75178
94252,75220
94250,75221
94247,75220
94230,75179
94071,75019
94029,75002
94028,75000
94029,74997
94070,74980
94230,74821
94247,74779
94250,74778
94252,74779
94269,74820
94428,74980
94470,74997
94471,75000
" /> 
</g>
<g style="fill:#000000; fill-opacity:1.0; 
stroke:#000000; stroke-width:59.0551; stroke-opacity:1; 
stroke-linecap:round; stroke-linejoin:round;">
<polyline style="fill-rule:evenodd;"
points="94471,76000
94470,76002
94429,76019
94269,76178
94252,76220
94250,76221
94247,76220
94230,76179
94071,76019
94029,76002
94028,76000
94029,75997
94070,75980
94230,75821
94247,75779
94250,75778
94252,75779
94269,75820
94428,75980
94470,75997
94471,76000
" /> 
</g>
<g style="fill:#000000; fill-opacity:0.0; 
stroke:#000000; stroke-width:39.3701; stroke-opacity:1; 
stroke-linecap:round; stroke-linejoin:round;">
<polyline fill="none;"
points="94471,76000
94470,76002
94429,76019
94269,76178
94252,76220
94250,76221
94247,76220
94230,76179
94071,76019
94029,76002
94028,76000
94029,75997
94070,75980
94230,75821
94247,75779
94250,75778
94252,75779
94269,75820
94428,75980
94470,75997
94471,76000
" /> 
</g>
<g style="fill:#000000; fill-opacity:1.0; 
stroke:#000000; stroke-width:59.0551; stroke-opacity:1; 
stroke-linecap:round; stroke-linejoin:round;">
<polyline style="fill-rule:evenodd;"
points="94471,77000
94470,77002
94429,77019
94269,77178
94252,77220
94250,77221
94247,77220
94230,77179
94071,77019
94029,77002
94028,77000
94029,76997
94070,76980
94230,76821
94247,76779
94250,76778
94252,76779
94269,76820
94428,76980
94470,76997
94471,77000
" /> 
</g>
<g style="fill:#000000; fill-opacity:0.0; 
stroke:#000000; stroke-width:39.3701; stroke-opacity:1; 
stroke-linecap:round; stroke-linejoin:round;">
<polyline fill="none;"
points="94471,77000
94470,77002
94429,77019
94269,77178
94252,77220
94250,77221
94247,77220
94230,77179
94071,77019
94029,77002
94028,77000
94029,76997
94070,76980
94230,76821
94247,76779
94250,76778
94252,76779
94269,76820
94428,76980
94470,76997
94471,77000
" /> 
</g>
<g style="fill:#000000; fill-opacity:1.0; 
stroke:#000000; stroke-width:59.0551; stroke-opacity:1; 
stroke-linecap:round; stroke-linejoin:round;">
<polyline style="fill-rule:evenodd;"
points="94471,78000
94470,78002
94429,78019
94269,78178
94252,78220
94250,78221
94247,78220
94230,78179
94071,78019
94029,78002
94028,78000
94029,77997
94070,77980
94230,77821
94247,77779
94250,77778
94252,77779
94269,77820
94428,77980
94470,77997
94471,78000
" /> 
</g>
<g style="fill:#000000; fill-opacity:0.0; 
stroke:#000000; stroke-width:39.3701; stroke-opacity:1; 
stroke-linecap:round; stroke-linejoin:round;">
<polyline fill="none;"
points="94471,78000
94470,78002
94429,78019
94269,78178
94252,78220
94250,78221
94247,78220
94230,78179
94071,78019
94029,78002
94028,78000
94029,77997
94070,77980
94230,77821
94247,77779
94250,77778
94252,77779
94269,77820
94428,77980
94470,77997
94471,78000
" /> 
</g>
<g style="fill:#000000; fill-opacity:1.0; 
stroke:#000000; stroke-width:59.0551; stroke-opacity:1; 
stroke-linecap:round; stroke-linejoin:round;">
<polyline style="fill-rule:evenodd;"
points="94471,79000
94470,79002
94429,79019
94269,79178
94252,79220
94250,79221
94247,79220
94230,79179
94071,79019
94029,79002
94028,79000
94029,78997
94070,78980
94230,78821
94247,78779
94250,78778
94252,78779
94269,78820
94428,78980
94470,78997
94471,79000
" /> 
</g>
<g style="fill:#000000; fill-opacity:0.0; 
stroke:#000000; stroke-width:39.3701; stroke-opacity:1; 
stroke-linecap:round; stroke-linejoin:round;">
<polyline fill="none;"
points="94471,79000
94470,79002
94429,79019
94269,79178
94252,79220
94250,79221
94247,79220
94230,79179
94071,79019
94029,79002
94028,79000
94029,78997
94070,78980
94230,78821
94247,78779
94250,78778
94252,78779
94269,78820
94428,78980
94470,78997
94471,79000
" /> 
</g>
<g style="fill:#000000; fill-opacity:1.0; 
stroke:#000000; stroke-width:59.0551; stroke-opacity:1; 
stroke-linecap:round; stroke-linejoin:round;">
<polyline style="fill-rule:evenodd;"
points="94976,97230
94016,97230
94016,96821
94976,95861
94976,97230
" /> 
</g>
<g style="fill:#000000; fill-opacity:0.0; 
stroke:#000000; stroke-width:39.3701; stroke-opacity:1; 
stroke-linecap:round; stroke-linejoin:round;">
<polyline fill="none;"
points="94976,97230
94016,97230
94016,96821
94976,95861
94976,97230
" /> 
</g>
<g style="fill:#000000; fill-opacity:1.0; 
stroke:#000000; stroke-width:59.0551; stroke-opacity:1; 
stroke-linecap:round; stroke-linejoin:round;">
<polyline style="fill-rule:evenodd;"
points="95471,75000
95470,75002
95429,75019
95269,75178
95252,75220
95250,75221
95247,75220
95230,75179
95071,75019
95029,75002
95028,75000
95029,74997
95070,74980
95230,74821
95247,74779
95250,74778
95252,74779
95269,74820
95428,74980
95470,74997
95471,75000
" /> 
</g>
<g style="fill:#000000; fill-opacity:0.0; 
stroke:#000000; stroke-width:39.3701; stroke-opacity:1; 
stroke-linecap:round; stroke-linejoin:round;">
<polyline fill="none;"
points="95471,75000
95470,75002
95429,75019
95269,75178
95252,75220
95250,75221
95247,75220
95230,75179
95071,75019
95029,75002
95028,75000
95029,74997
95070,74980
95230,74821
95247,74779
95250,74778
95252,74779
95269,74820
95428,74980
95470,74997
95471,75000
" /> 
</g>
<g style="fill:#000000; fill-opacity:1.0; 
stroke:#000000; stroke-width:59.0551; stroke-opacity:1; 
stroke-linecap:round; stroke-linejoin:round;">
<polyline style="fill-rule:evenodd;"
points="95471,76000
95470,76002
95429,76019
95269,76178
95252,76220
95250,76221
95247,76220
95230,76179
95071,76019
95029,76002
95028,76000
95029,75997
95070,75980
95230,75821
95247,75779
95250,75778
95252,75779
95269,75820
95428,75980
95470,75997
95471,76000
" /> 
</g>
<g style="fill:#000000; fill-opacity:0.0; 
stroke:#000000; stroke-width:39.3701; stroke-opacity:1; 
stroke-linecap:round; stroke-linejoin:round;">
<polyline fill="none;"
points="95471,76000
95470,76002
95429,76019
95269,76178
95252,76220
95250,76221
95247,76220
95230,76179
95071,76019
95029,76002
95028,76000
95029,75997
95070,75980
95230,75821
95247,75779
95250,75778
95252,75779
95269,75820
95428,75980
95470,75997
95471,76000
" /> 
</g>
<g style="fill:#000000; fill-opacity:1.0; 
stroke:#000000; stroke-width:59.0551; stroke-opacity:1; 
stroke-linecap:round; stroke-linejoin:round;">
<polyline style="fill-rule:evenodd;"
points="95471,77000
95470,77002
95429,77019
95269,77178
95252,77220
95250,77221
95247,77220
95230,77179
95071,77019
95029,77002
95028,77000
95029,76997
95070,76980
95230,76821
95247,76779
95250,76778
95252,76779
95269,76820
95428,76980
95470,76997
95471,77000
" /> 
</g>
<g style="fill:#000000; fill-opacity:0.0; 
stroke:#000000; stroke-width:39.3701; stroke-opacity:1; 
stroke-linecap:round; stroke-linejoin:round;">
<polyline fill="none;"
points="95471,77000
95470,77002
95429,77019
95269,77178
95252,77220
95250,77221
95247,77220
95230,77179
95071,77019
95029,77002
95028,77000
95029,76997
95070,76980
95230,76821
95247,76779
95250,76778
95252,76779
95269,76820
95428,76980
95470,76997
95471,77000
" /> 
</g>
<g style="fill:#000000; fill-opacity:1.0; 
stroke:#000000; stroke-width:59.0551; stroke-opacity:1; 
stroke-linecap:round; stroke-linejoin:round;">
<polyline style="fill-rule:evenodd;"
points="95471,78000
95470,78002
95429,78019
95269,78178
95252,78220
95250,78221
95247,78220
95230,78179
95071,78019
95029,78002
95028,78000
95029,77997
95070,77980
95230,77821
95247,77779
95250,77778
95252,77779
95269,77820
95428,77980
95470,77997
95471,78000
" /> 
</g>
<g style="fill:#000000; fill-opacity:0.0; 
stroke:#000000; stroke-width:39.3701; stroke-opacity:1; 
stroke-linecap:round; stroke-linejoin:round;">
<polyline fill="none;"
points="95471,78000
95470,78002
95429,78019
95269,78178
95252,78220
95250,78221
95247,78220
95230,78179
95071,78019
95029,78002
95028,78000
95029,77997
95070,77980
95230,77821
95247,77779
95250,77778
95252,77779
95269,77820
95428,77980
95470,77997
95471,78000
" /> 
</g>
<g style="fill:#000000; fill-opacity:1.0; 
stroke:#000000; stroke-width:59.0551; stroke-opacity:1; 
stroke-linecap:round; stroke-linejoin:round;">
<polyline style="fill-rule:evenodd;"
points="95471,79000
95470,79002
95429,79019
95269,79178
95252,79220
95250,79221
95247,79220
95230,79179
95071,79019
95029,79002
95028,79000
95029,78997
95070,78980
95230,78821
95247,78779
95250,78778
95252,78779
95269,78820
95428,78980
95470,78997
95471,79000
" /> 
</g>
<g style="fill:#000000; fill-opacity:0.0; 
stroke:#000000; stroke-width:39.3701; stroke-opacity:1; 
stroke-linecap:round; stroke-linejoin:round;">
<polyline fill="none;"
points="95471,79000
95470,79002
95429,79019
95269,79178
95252,79220
95250,79221
95247,79220
95230,79179
95071,79019
95029,79002
95028,79000
95029,78997
95070,78980
95230,78821
95247,78779
95250,78778
95252,78779
95269,78820
95428,78980
95470,78997
95471,79000
" /> 
</g>
<g style="fill:#000000; fill-opacity:1.0; 
stroke:#000000; stroke-width:59.0551; stroke-opacity:1; 
stroke-linecap:round; stroke-linejoin:round;">
<polyline style="fill-rule:evenodd;"
points="95968,83414
95926,83432
95782,83575
95704,83763
95704,83772
93967,82035
94023,82012
94029,81997
94070,81980
94230,81821
94247,81779
94250,81778
94252,81779
94269,81820
94428,81980
94470,81997
94476,82012
94588,82046
94636,82066
94655,82066
94693,82078
94809,82066
94862,82066
94879,82059
94919,82055
95023,82012
95029,81997
95070,81980
95230,81821
95247,81779
95251,81777
95269,81820
95428,81980
95636,82066
95862,82066
95968,82022
95968,83414
" /> 
</g>
<g style="fill:#000000; fill-opacity:0.0; 
stroke:#000000; stroke-width:39.3701; stroke-opacity:1; 
stroke-linecap:round; stroke-linejoin:round;">
<polyline fill="none;"
points="95968,83414
95926,83432
95782,83575
95704,83763
95704,83772
93967,82035
94023,82012
94029,81997
94070,81980
94230,81821
94247,81779
94250,81778
94252,81779
94269,81820
94428,81980
94470,81997
94476,82012
94588,82046
94636,82066
94655,82066
94693,82078
94809,82066
94862,82066
94879,82059
94919,82055
95023,82012
95029,81997
95070,81980
95230,81821
95247,81779
95251,81777
95269,81820
95428,81980
95636,82066
95862,82066
95968,82022
95968,83414
" /> 
</g>
<g style="fill:#000000; fill-opacity:1.0; 
stroke:#000000; stroke-width:59.0551; stroke-opacity:1; 
stroke-linecap:round; stroke-linejoin:round;">
<polyline style="fill-rule:evenodd;"
points="96483,97230
95823,97230
95823,95861
96483,96521
96483,97230
" /> 
</g>
<g style="fill:#000000; fill-opacity:0.0; 
stroke:#000000; stroke-width:39.3701; stroke-opacity:1; 
stroke-linecap:round; stroke-linejoin:round;">
<polyline fill="none;"
points="96483,97230
95823,97230
95823,95861
96483,96521
96483,97230
" /> 
</g>
<g style="fill:#000000; fill-opacity:1.0; 
stroke:#000000; stroke-width:59.0551; stroke-opacity:1; 
stroke-linecap:round; stroke-linejoin:round;">
<polyline style="fill-rule:evenodd;"
points="97468,97230
97016,97230
97016,96410
96996,96308
96938,96222
96938,96222
96169,95453
96173,95443
96173,95357
96173,95146
96173,95146
96210,95121
96665,94666
96723,94579
96723,94579
96743,94477
96743,94477
96743,94451
96803,94475
97006,94475
97131,94424
97131,94446
97209,94634
97352,94778
97468,94826
97468,97230
" /> 
</g>
<g style="fill:#000000; fill-opacity:0.0; 
stroke:#000000; stroke-width:39.3701; stroke-opacity:1; 
stroke-linecap:round; stroke-linejoin:round;">
<polyline fill="none;"
points="97468,97230
97016,97230
97016,96410
96996,96308
96938,96222
96938,96222
96169,95453
96173,95443
96173,95357
96173,95146
96173,95146
96210,95121
96665,94666
96723,94579
96723,94579
96743,94477
96743,94477
96743,94451
96803,94475
97006,94475
97131,94424
97131,94446
97209,94634
97352,94778
97468,94826
97468,97230
" /> 
</g>
<g style="fill:#000000; fill-opacity:1.0; 
stroke:#000000; stroke-width:59.0551; stroke-opacity:1; 
stroke-linecap:round; stroke-linejoin:round;">
<polyline style="fill-rule:evenodd;"
points="98307,84565
94739,88133
94681,88220
94661,88322
94661,94375
94659,94377
94626,94456
94626,94542
94626,94842
94659,94922
94686,94949
94659,94977
94626,95056
94626,95142
94626,95442
94630,95453
94266,95817
94266,88897
94188,88707
94042,88562
93892,88499
94042,88438
94187,88292
94266,88103
94266,87897
94188,87707
94042,87562
93932,87516
94092,87516
94172,87483
94233,87422
94266,87343
94266,87257
94266,86657
94233,86577
94172,86516
94093,86483
94007,86483
93407,86483
93327,86516
93266,86577
93233,86656
93233,86742
93233,87342
93266,87422
93327,87483
93406,87516
93492,87516
93567,87516
93457,87561
93312,87707
93233,87896
93233,88102
93311,88292
93457,88437
93607,88500
93457,88561
93312,88707
93233,88896
93233,89102
93311,89292
93457,89437
93646,89516
93852,89516
94042,89438
94187,89292
94266,89103
94266,88897
94266,95817
93561,96522
93503,96608
93483,96710
93483,97230
92986,97230
92986,91750
92986,81739
92996,81788
93053,81875
95665,84487
95752,84545
95752,84545
95854,84565
98307,84565
" /> 
</g>
<g style="fill:#000000; fill-opacity:0.0; 
stroke:#000000; stroke-width:39.3701; stroke-opacity:1; 
stroke-linecap:round; stroke-linejoin:round;">
<polyline fill="none;"
points="98307,84565
94739,88133
94681,88220
94661,88322
94661,94375
94659,94377
94626,94456
94626,94542
94626,94842
94659,94922
94686,94949
94659,94977
94626,95056
94626,95142
94626,95442
94630,95453
94266,95817
94266,88897
94188,88707
94042,88562
93892,88499
94042,88438
94187,88292
94266,88103
94266,87897
94188,87707
94042,87562
93932,87516
94092,87516
94172,87483
94233,87422
94266,87343
94266,87257
94266,86657
94233,86577
94172,86516
94093,86483
94007,86483
93407,86483
93327,86516
93266,86577
93233,86656
93233,86742
93233,87342
93266,87422
93327,87483
93406,87516
93492,87516
93567,87516
93457,87561
93312,87707
93233,87896
93233,88102
93311,88292
93457,88437
93607,88500
93457,88561
93312,88707
93233,88896
93233,89102
93311,89292
93457,89437
93646,89516
93852,89516
94042,89438
94187,89292
94266,89103
94266,88897
94266,95817
93561,96522
93503,96608
93483,96710
93483,97230
92986,97230
92986,91750
92986,81739
92996,81788
93053,81875
95665,84487
95752,84545
95752,84545
95854,84565
98307,84565
" /> 
</g>
<g style="fill:#000000; fill-opacity:1.0; 
stroke:#000000; stroke-width:59.0551; stroke-opacity:1; 
stroke-linecap:round; stroke-linejoin:round;">
<polyline style="fill-rule:evenodd;"
points="98357,81091
98269,81178
98250,81226
98230,81179
98142,81091
98357,81091
" /> 
</g>
<g style="fill:#000000; fill-opacity:0.0; 
stroke:#000000; stroke-width:39.3701; stroke-opacity:1; 
stroke-linecap:round; stroke-linejoin:round;">
<polyline fill="none;"
points="98357,81091
98269,81178
98250,81226
98230,81179
98142,81091
98357,81091
" /> 
</g>
<g style="fill:#000000; fill-opacity:1.0; 
stroke:#000000; stroke-width:59.0551; stroke-opacity:1; 
stroke-linecap:round; stroke-linejoin:round;">
<polyline style="fill-rule:evenodd;"
points="99357,81091
99269,81178
99250,81226
99230,81179
99142,81091
99357,81091
" /> 
</g>
<g style="fill:#000000; fill-opacity:0.0; 
stroke:#000000; stroke-width:39.3701; stroke-opacity:1; 
stroke-linecap:round; stroke-linejoin:round;">
<polyline fill="none;"
points="99357,81091
99269,81178
99250,81226
99230,81179
99142,81091
99357,81091
" /> 
</g>
<g style="fill:#000000; fill-opacity:1.0; 
stroke:#000000; stroke-width:59.0551; stroke-opacity:1; 
stroke-linecap:round; stroke-linejoin:round;">
<polyline style="fill-rule:evenodd;"
points="100357,81091
100269,81178
100252,81220
100248,81222
100230,81179
100142,81091
100357,81091
" /> 
</g>
<g style="fill:#000000; fill-opacity:0.0; 
stroke:#000000; stroke-width:39.3701; stroke-opacity:1; 
stroke-linecap:round; stroke-linejoin:round;">
<polyline fill="none;"
points="100357,81091
100269,81178
100252,81220
100248,81222
100230,81179
100142,81091
100357,81091
" /> 
</g>
<g style="fill:#000000; fill-opacity:1.0; 
stroke:#000000; stroke-width:59.0551; stroke-opacity:1; 
stroke-linecap:round; stroke-linejoin:round;">
<polyline style="fill-rule:evenodd;"
points="100545,82033
98546,84032
96701,84032
96728,83968
96728,83764
96650,83576
96531,83457
96531,82022
96636,82066
96862,82066
97070,81980
97230,81821
97249,81773
97269,81820
97428,81980
97636,82066
97862,82066
98070,81980
98230,81821
98249,81773
98269,81820
98428,81980
98636,82066
98862,82066
99070,81980
99230,81821
99249,81773
99269,81820
99428,81980
99636,82066
99862,82066
100070,81980
100230,81821
100248,81777
100252,81779
100269,81820
100428,81980
100470,81997
100476,82012
100545,82033
" /> 
</g>
<g style="fill:#000000; fill-opacity:0.0; 
stroke:#000000; stroke-width:39.3701; stroke-opacity:1; 
stroke-linecap:round; stroke-linejoin:round;">
<polyline fill="none;"
points="100545,82033
98546,84032
96701,84032
96728,83968
96728,83764
96650,83576
96531,83457
96531,82022
96636,82066
96862,82066
97070,81980
97230,81821
97249,81773
97269,81820
97428,81980
97636,82066
97862,82066
98070,81980
98230,81821
98249,81773
98269,81820
98428,81980
98636,82066
98862,82066
99070,81980
99230,81821
99249,81773
99269,81820
99428,81980
99636,82066
99862,82066
100070,81980
100230,81821
100248,81777
100252,81779
100269,81820
100428,81980
100470,81997
100476,82012
100545,82033
" /> 
</g>
<g style="fill:#000000; fill-opacity:1.0; 
stroke:#000000; stroke-width:59.0551; stroke-opacity:1; 
stroke-linecap:round; stroke-linejoin:round;">
<polyline style="fill-rule:evenodd;"
points="100630,95503
99561,96572
99503,96658
99483,96760
99483,97230
98031,97230
98031,94680
98076,94635
98154,94447
98155,94243
98077,94055
97933,93911
97745,93833
97541,93833
97417,93884
97417,93862
97339,93674
97333,93668
98048,92953
98076,93020
98220,93164
98408,93242
98612,93243
98635,93233
100573,95171
100573,95171
100626,95206
100626,95492
100630,95503
" /> 
</g>
<g style="fill:#000000; fill-opacity:0.0; 
stroke:#000000; stroke-width:39.3701; stroke-opacity:1; 
stroke-linecap:round; stroke-linejoin:round;">
<polyline fill="none;"
points="100630,95503
99561,96572
99503,96658
99483,96760
99483,97230
98031,97230
98031,94680
98076,94635
98154,94447
98155,94243
98077,94055
97933,93911
97745,93833
97541,93833
97417,93884
97417,93862
97339,93674
97333,93668
98048,92953
98076,93020
98220,93164
98408,93242
98612,93243
98635,93233
100573,95171
100573,95171
100626,95206
100626,95492
100630,95503
" /> 
</g>
<g style="fill:#000000; fill-opacity:1.0; 
stroke:#000000; stroke-width:59.0551; stroke-opacity:1; 
stroke-linecap:round; stroke-linejoin:round;">
<polyline style="fill-rule:evenodd;"
points="100976,97230
100016,97230
100016,96871
100976,95911
100976,97230
" /> 
</g>
<g style="fill:#000000; fill-opacity:0.0; 
stroke:#000000; stroke-width:39.3701; stroke-opacity:1; 
stroke-linecap:round; stroke-linejoin:round;">
<polyline fill="none;"
points="100976,97230
100016,97230
100016,96871
100976,95911
100976,97230
" /> 
</g>
<g style="fill:#000000; fill-opacity:1.0; 
stroke:#000000; stroke-width:59.0551; stroke-opacity:1; 
stroke-linecap:round; stroke-linejoin:round;">
<polyline style="fill-rule:evenodd;"
points="101084,93636
101025,93611
100821,93611
100633,93689
100489,93833
100411,94021
100411,94224
100432,94275
99012,92856
99022,92833
99022,92629
98944,92441
98801,92297
98732,92269
100154,90848
100145,90892
100145,92308
100165,92410
100223,92496
101084,93358
101084,93636
" /> 
</g>
<g style="fill:#000000; fill-opacity:0.0; 
stroke:#000000; stroke-width:39.3701; stroke-opacity:1; 
stroke-linecap:round; stroke-linejoin:round;">
<polyline fill="none;"
points="101084,93636
101025,93611
100821,93611
100633,93689
100489,93833
100411,94021
100411,94224
100432,94275
99012,92856
99022,92833
99022,92629
98944,92441
98801,92297
98732,92269
100154,90848
100145,90892
100145,92308
100165,92410
100223,92496
101084,93358
101084,93636
" /> 
</g>
<g style="fill:#000000; fill-opacity:1.0; 
stroke:#000000; stroke-width:59.0551; stroke-opacity:1; 
stroke-linecap:round; stroke-linejoin:round;">
<polyline style="fill-rule:evenodd;"
points="101806,82066
97889,85983
97831,86070
97811,86172
97811,88976
97788,88986
97644,89130
97566,89318
97566,89521
97643,89709
97787,89853
97951,89921
95368,92504
95310,92590
95290,92692
95290,94283
95285,94283
95194,94283
95194,88432
101582,82044
101636,82066
101806,82066
" /> 
</g>
<g style="fill:#000000; fill-opacity:0.0; 
stroke:#000000; stroke-width:39.3701; stroke-opacity:1; 
stroke-linecap:round; stroke-linejoin:round;">
<polyline fill="none;"
points="101806,82066
97889,85983
97831,86070
97811,86172
97811,88976
97788,88986
97644,89130
97566,89318
97566,89521
97643,89709
97787,89853
97951,89921
95368,92504
95310,92590
95290,92692
95290,94283
95285,94283
95194,94283
95194,88432
101582,82044
101636,82066
101806,82066
" /> 
</g>
<g style="fill:#000000; fill-opacity:1.0; 
stroke:#000000; stroke-width:59.0551; stroke-opacity:1; 
stroke-linecap:round; stroke-linejoin:round;">
<polyline style="fill-rule:evenodd;"
points="102483,97230
101823,97230
101823,95911
102483,96571
102483,97230
" /> 
</g>
<g style="fill:#000000; fill-opacity:0.0; 
stroke:#000000; stroke-width:39.3701; stroke-opacity:1; 
stroke-linecap:round; stroke-linejoin:round;">
<polyline fill="none;"
points="102483,97230
101823,97230
101823,95911
102483,96571
102483,97230
" /> 
</g>
<g style="fill:#000000; fill-opacity:1.0; 
stroke:#000000; stroke-width:59.0551; stroke-opacity:1; 
stroke-linecap:round; stroke-linejoin:round;">
<polyline style="fill-rule:evenodd;"
points="102961,94425
102959,94427
102926,94506
102926,94592
102926,94716
102173,94716
102173,94507
102140,94427
102138,94425
102138,94417
102138,93544
102961,94367
102961,94425
" /> 
</g>
<g style="fill:#000000; fill-opacity:0.0; 
stroke:#000000; stroke-width:39.3701; stroke-opacity:1; 
stroke-linecap:round; stroke-linejoin:round;">
<polyline fill="none;"
points="102961,94425
102959,94427
102926,94506
102926,94592
102926,94716
102173,94716
102173,94507
102140,94427
102138,94425
102138,94417
102138,93544
102961,94367
102961,94425
" /> 
</g>
<g style="fill:#000000; fill-opacity:1.0; 
stroke:#000000; stroke-width:59.0551; stroke-opacity:1; 
stroke-linecap:round; stroke-linejoin:round;">
<polyline style="fill-rule:evenodd;"
points="102961,96306
102938,96272
102938,96272
102169,95503
102173,95493
102173,95407
102173,95249
102926,95249
102926,95492
102959,95572
102961,95574
102961,95582
102961,96306
" /> 
</g>
<g style="fill:#000000; fill-opacity:0.0; 
stroke:#000000; stroke-width:39.3701; stroke-opacity:1; 
stroke-linecap:round; stroke-linejoin:round;">
<polyline fill="none;"
points="102961,96306
102938,96272
102938,96272
102169,95503
102173,95493
102173,95407
102173,95249
102926,95249
102926,95492
102959,95572
102961,95574
102961,95582
102961,96306
" /> 
</g>
<g style="fill:#000000; fill-opacity:1.0; 
stroke:#000000; stroke-width:59.0551; stroke-opacity:1; 
stroke-linecap:round; stroke-linejoin:round;">
<polyline style="fill-rule:evenodd;"
points="103590,94333
103585,94333
103494,94333
103494,94257
103474,94155
103474,94155
103416,94068
101514,92166
101527,92161
103590,94224
103590,94333
" /> 
</g>
<g style="fill:#000000; fill-opacity:0.0; 
stroke:#000000; stroke-width:39.3701; stroke-opacity:1; 
stroke-linecap:round; stroke-linejoin:round;">
<polyline fill="none;"
points="103590,94333
103585,94333
103494,94333
103494,94257
103474,94155
103474,94155
103416,94068
101514,92166
101527,92161
103590,94224
103590,94333
" /> 
</g>
<g style="fill:#000000; fill-opacity:1.0; 
stroke:#000000; stroke-width:59.0551; stroke-opacity:1; 
stroke-linecap:round; stroke-linejoin:round;">
<polyline style="fill-rule:evenodd;"
points="104357,81091
104269,81178
104250,81226
104230,81179
104142,81091
104357,81091
" /> 
</g>
<g style="fill:#000000; fill-opacity:0.0; 
stroke:#000000; stroke-width:39.3701; stroke-opacity:1; 
stroke-linecap:round; stroke-linejoin:round;">
<polyline fill="none;"
points="104357,81091
104269,81178
104250,81226
104230,81179
104142,81091
104357,81091
" /> 
</g>
<g style="fill:#000000; fill-opacity:1.0; 
stroke:#000000; stroke-width:59.0551; stroke-opacity:1; 
stroke-linecap:round; stroke-linejoin:round;">
<polyline style="fill-rule:evenodd;"
points="104483,97230
103494,97230
103494,95911
104483,96900
104483,97230
" /> 
</g>
<g style="fill:#000000; fill-opacity:0.0; 
stroke:#000000; stroke-width:39.3701; stroke-opacity:1; 
stroke-linecap:round; stroke-linejoin:round;">
<polyline fill="none;"
points="104483,97230
103494,97230
103494,95911
104483,96900
104483,97230
" /> 
</g>
<g style="fill:#000000; fill-opacity:1.0; 
stroke:#000000; stroke-width:59.0551; stroke-opacity:1; 
stroke-linecap:round; stroke-linejoin:round;">
<polyline style="fill-rule:evenodd;"
points="105127,97230
105016,97230
105016,97119
105127,97230
" /> 
</g>
<g style="fill:#000000; fill-opacity:0.0; 
stroke:#000000; stroke-width:39.3701; stroke-opacity:1; 
stroke-linecap:round; stroke-linejoin:round;">
<polyline fill="none;"
points="105127,97230
105016,97230
105016,97119
105127,97230
" /> 
</g>
<g style="fill:#000000; fill-opacity:1.0; 
stroke:#000000; stroke-width:59.0551; stroke-opacity:1; 
stroke-linecap:round; stroke-linejoin:round;">
<polyline style="fill-rule:evenodd;"
points="105357,81091
105269,81178
105252,81220
105248,81222
105230,81179
105142,81091
105357,81091
" /> 
</g>
<g style="fill:#000000; fill-opacity:0.0; 
stroke:#000000; stroke-width:39.3701; stroke-opacity:1; 
stroke-linecap:round; stroke-linejoin:round;">
<polyline fill="none;"
points="105357,81091
105269,81178
105252,81220
105248,81222
105230,81179
105142,81091
105357,81091
" /> 
</g>
<g style="fill:#000000; fill-opacity:1.0; 
stroke:#000000; stroke-width:59.0551; stroke-opacity:1; 
stroke-linecap:round; stroke-linejoin:round;">
<polyline style="fill-rule:evenodd;"
points="105806,82066
98579,89293
98512,89130
98368,88986
98344,88976
98344,86282
102582,82044
102636,82066
102862,82066
103000,82009
103000,83067
103020,83169
103078,83256
103154,83331
103144,83354
103144,83558
103222,83746
103365,83890
103554,83968
103757,83968
103945,83891
104089,83747
104167,83559
104168,83355
104090,83167
103946,83023
103758,82945
103554,82945
103533,82953
103533,82023
103636,82066
103862,82066
104070,81980
104230,81821
104249,81773
104269,81820
104428,81980
104636,82066
104862,82066
105070,81980
105230,81821
105248,81777
105252,81779
105269,81820
105428,81980
105470,81997
105476,82012
105588,82046
105636,82066
105655,82066
105693,82078
105806,82066
" /> 
</g>
<g style="fill:#000000; fill-opacity:0.0; 
stroke:#000000; stroke-width:39.3701; stroke-opacity:1; 
stroke-linecap:round; stroke-linejoin:round;">
<polyline fill="none;"
points="105806,82066
98579,89293
98512,89130
98368,88986
98344,88976
98344,86282
102582,82044
102636,82066
102862,82066
103000,82009
103000,83067
103020,83169
103078,83256
103154,83331
103144,83354
103144,83558
103222,83746
103365,83890
103554,83968
103757,83968
103945,83891
104089,83747
104167,83559
104168,83355
104090,83167
103946,83023
103758,82945
103554,82945
103533,82953
103533,82023
103636,82066
103862,82066
104070,81980
104230,81821
104249,81773
104269,81820
104428,81980
104636,82066
104862,82066
105070,81980
105230,81821
105248,81777
105252,81779
105269,81820
105428,81980
105470,81997
105476,82012
105588,82046
105636,82066
105655,82066
105693,82078
105806,82066
" /> 
</g>
<g style="fill:#000000; fill-opacity:1.0; 
stroke:#000000; stroke-width:59.0551; stroke-opacity:1; 
stroke-linecap:round; stroke-linejoin:round;">
<polyline style="fill-rule:evenodd;"
points="105862,85669
105693,85839
105668,85780
105524,85636
105412,85589
105727,85274
105727,85424
105805,85612
105862,85669
" /> 
</g>
<g style="fill:#000000; fill-opacity:0.0; 
stroke:#000000; stroke-width:39.3701; stroke-opacity:1; 
stroke-linecap:round; stroke-linejoin:round;">
<polyline fill="none;"
points="105862,85669
105693,85839
105668,85780
105524,85636
105412,85589
105727,85274
105727,85424
105805,85612
105862,85669
" /> 
</g>
<g style="fill:#000000; fill-opacity:1.0; 
stroke:#000000; stroke-width:59.0551; stroke-opacity:1; 
stroke-linecap:round; stroke-linejoin:round;">
<polyline style="fill-rule:evenodd;"
points="106357,81091
106269,81178
106251,81222
106247,81220
106230,81179
106142,81091
106357,81091
" /> 
</g>
<g style="fill:#000000; fill-opacity:0.0; 
stroke:#000000; stroke-width:39.3701; stroke-opacity:1; 
stroke-linecap:round; stroke-linejoin:round;">
<polyline fill="none;"
points="106357,81091
106269,81178
106251,81222
106247,81220
106230,81179
106142,81091
106357,81091
" /> 
</g>
<g style="fill:#000000; fill-opacity:1.0; 
stroke:#000000; stroke-width:59.0551; stroke-opacity:1; 
stroke-linecap:round; stroke-linejoin:round;">
<polyline style="fill-rule:evenodd;"
points="106806,82066
95823,93049
95823,92803
106582,82044
106636,82066
106806,82066
" /> 
</g>
<g style="fill:#000000; fill-opacity:0.0; 
stroke:#000000; stroke-width:39.3701; stroke-opacity:1; 
stroke-linecap:round; stroke-linejoin:round;">
<polyline fill="none;"
points="106806,82066
95823,93049
95823,92803
106582,82044
106636,82066
106806,82066
" /> 
</g>
<g style="fill:#000000; fill-opacity:1.0; 
stroke:#000000; stroke-width:59.0551; stroke-opacity:1; 
stroke-linecap:round; stroke-linejoin:round;">
<polyline style="fill-rule:evenodd;"
points="107357,81091
107269,81178
107250,81226
107230,81179
107142,81091
107357,81091
" /> 
</g>
<g style="fill:#000000; fill-opacity:0.0; 
stroke:#000000; stroke-width:39.3701; stroke-opacity:1; 
stroke-linecap:round; stroke-linejoin:round;">
<polyline fill="none;"
points="107357,81091
107269,81178
107250,81226
107230,81179
107142,81091
107357,81091
" /> 
</g>
<g style="fill:#000000; fill-opacity:1.0; 
stroke:#000000; stroke-width:59.0551; stroke-opacity:1; 
stroke-linecap:round; stroke-linejoin:round;">
<polyline style="fill-rule:evenodd;"
points="107806,82066
96288,93584
96231,93670
96210,93772
96210,94367
96158,94419
96140,94377
96138,94375
96138,93488
107582,82044
107636,82066
107806,82066
" /> 
</g>
<g style="fill:#000000; fill-opacity:0.0; 
stroke:#000000; stroke-width:39.3701; stroke-opacity:1; 
stroke-linecap:round; stroke-linejoin:round;">
<polyline fill="none;"
points="107806,82066
96288,93584
96231,93670
96210,93772
96210,94367
96158,94419
96140,94377
96138,94375
96138,93488
107582,82044
107636,82066
107806,82066
" /> 
</g>
<g style="fill:#000000; fill-opacity:1.0; 
stroke:#000000; stroke-width:59.0551; stroke-opacity:1; 
stroke-linecap:round; stroke-linejoin:round;">
<polyline style="fill-rule:evenodd;"
points="108357,81091
108269,81178
108250,81226
108230,81179
108142,81091
108357,81091
" /> 
</g>
<g style="fill:#000000; fill-opacity:0.0; 
stroke:#000000; stroke-width:39.3701; stroke-opacity:1; 
stroke-linecap:round; stroke-linejoin:round;">
<polyline fill="none;"
points="108357,81091
108269,81178
108250,81226
108230,81179
108142,81091
108357,81091
" /> 
</g>
<g style="fill:#000000; fill-opacity:1.0; 
stroke:#000000; stroke-width:59.0551; stroke-opacity:1; 
stroke-linecap:round; stroke-linejoin:round;">
<polyline style="fill-rule:evenodd;"
points="108806,82066
106325,84547
106079,84547
108582,82044
108636,82066
108806,82066
" /> 
</g>
<g style="fill:#000000; fill-opacity:0.0; 
stroke:#000000; stroke-width:39.3701; stroke-opacity:1; 
stroke-linecap:round; stroke-linejoin:round;">
<polyline fill="none;"
points="108806,82066
106325,84547
106079,84547
108582,82044
108636,82066
108806,82066
" /> 
</g>
<g style="fill:#000000; fill-opacity:1.0; 
stroke:#000000; stroke-width:59.0551; stroke-opacity:1; 
stroke-linecap:round; stroke-linejoin:round;">
<polyline style="fill-rule:evenodd;"
points="108976,97230
108016,97230
108016,96821
108976,95861
108976,97230
" /> 
</g>
<g style="fill:#000000; fill-opacity:0.0; 
stroke:#000000; stroke-width:39.3701; stroke-opacity:1; 
stroke-linecap:round; stroke-linejoin:round;">
<polyline fill="none;"
points="108976,97230
108016,97230
108016,96821
108976,95861
108976,97230
" /> 
</g>
<g style="fill:#000000; fill-opacity:1.0; 
stroke:#000000; stroke-width:59.0551; stroke-opacity:1; 
stroke-linecap:round; stroke-linejoin:round;">
<polyline style="fill-rule:evenodd;"
points="109290,94283
109285,94283
109194,94283
109194,91242
109220,91305
109290,91375
109290,94283
" /> 
</g>
<g style="fill:#000000; fill-opacity:0.0; 
stroke:#000000; stroke-width:39.3701; stroke-opacity:1; 
stroke-linecap:round; stroke-linejoin:round;">
<polyline fill="none;"
points="109290,94283
109285,94283
109194,94283
109194,91242
109220,91305
109290,91375
109290,94283
" /> 
</g>
<g style="fill:#000000; fill-opacity:1.0; 
stroke:#000000; stroke-width:59.0551; stroke-opacity:1; 
stroke-linecap:round; stroke-linejoin:round;">
<polyline style="fill-rule:evenodd;"
points="109357,81091
109269,81178
109250,81226
109230,81179
109142,81091
109357,81091
" /> 
</g>
<g style="fill:#000000; fill-opacity:0.0; 
stroke:#000000; stroke-width:39.3701; stroke-opacity:1; 
stroke-linecap:round; stroke-linejoin:round;">
<polyline fill="none;"
points="109357,81091
109269,81178
109250,81226
109230,81179
109142,81091
109357,81091
" /> 
</g>
<g style="fill:#000000; fill-opacity:1.0; 
stroke:#000000; stroke-width:59.0551; stroke-opacity:1; 
stroke-linecap:round; stroke-linejoin:round;">
<polyline style="fill-rule:evenodd;"
points="109724,82066
106698,85092
106673,85033
106633,84993
109582,82044
109636,82066
109724,82066
" /> 
</g>
<g style="fill:#000000; fill-opacity:0.0; 
stroke:#000000; stroke-width:39.3701; stroke-opacity:1; 
stroke-linecap:round; stroke-linejoin:round;">
<polyline fill="none;"
points="109724,82066
106698,85092
106673,85033
106633,84993
109582,82044
109636,82066
109724,82066
" /> 
</g>
<g style="fill:#000000; fill-opacity:1.0; 
stroke:#000000; stroke-width:59.0551; stroke-opacity:1; 
stroke-linecap:round; stroke-linejoin:round;">
<polyline style="fill-rule:evenodd;"
points="110483,97230
109823,97230
109823,95861
110483,96521
110483,97230
" /> 
</g>
<g style="fill:#000000; fill-opacity:0.0; 
stroke:#000000; stroke-width:39.3701; stroke-opacity:1; 
stroke-linecap:round; stroke-linejoin:round;">
<polyline fill="none;"
points="110483,97230
109823,97230
109823,95861
110483,96521
110483,97230
" /> 
</g>
<g style="fill:#000000; fill-opacity:1.0; 
stroke:#000000; stroke-width:59.0551; stroke-opacity:1; 
stroke-linecap:round; stroke-linejoin:round;">
<polyline style="fill-rule:evenodd;"
points="110963,93622
110336,94250
110356,94149
110356,94149
110356,84012
110963,83404
110963,93622
" /> 
</g>
<g style="fill:#000000; fill-opacity:0.0; 
stroke:#000000; stroke-width:39.3701; stroke-opacity:1; 
stroke-linecap:round; stroke-linejoin:round;">
<polyline fill="none;"
points="110963,93622
110336,94250
110356,94149
110356,94149
110356,84012
110963,83404
110963,93622
" /> 
</g>
<g style="fill:#000000; fill-opacity:1.0; 
stroke:#000000; stroke-width:59.0551; stroke-opacity:1; 
stroke-linecap:round; stroke-linejoin:round;">
<polyline style="fill-rule:evenodd;"
points="111574,82040
109901,83713
109843,83799
109823,83901
109823,90531
109756,90504
109553,90504
109365,90581
109221,90725
109194,90789
109194,89524
109324,89470
109468,89326
109546,89138
109546,88934
109468,88746
109325,88602
109137,88524
108933,88524
108745,88602
108601,88746
108523,88934
108522,89137
108600,89325
108661,89386
108661,94375
108659,94377
108626,94456
108626,94542
108626,94842
108659,94922
108686,94949
108659,94977
108626,95056
108626,95142
108626,95442
108630,95453
107561,96522
107503,96608
107483,96710
107483,97230
106196,97230
104469,95503
104473,95493
104473,95407
104473,95107
104440,95027
104413,95000
104440,94972
104473,94893
104473,94807
104473,94683
106019,94683
106121,94663
106121,94663
106207,94605
106943,93869
106966,93879
107169,93879
107358,93801
107502,93658
107580,93470
107580,93266
107502,93078
107358,92934
107170,92856
106967,92855
106778,92933
106634,93077
106556,93265
106556,93469
106566,93492
105908,94150
104172,94150
104123,94160
104123,94113
104103,94011
104045,93925
104045,93925
101904,91784
101914,91761
101914,91557
101836,91369
101692,91225
101611,91191
110737,82066
110862,82066
111070,81980
111230,81821
111249,81773
111269,81820
111428,81980
111574,82040
" /> 
</g>
<g style="fill:#000000; fill-opacity:0.0; 
stroke:#000000; stroke-width:39.3701; stroke-opacity:1; 
stroke-linecap:round; stroke-linejoin:round;">
<polyline fill="none;"
points="111574,82040
109901,83713
109843,83799
109823,83901
109823,90531
109756,90504
109553,90504
109365,90581
109221,90725
109194,90789
109194,89524
109324,89470
109468,89326
109546,89138
109546,88934
109468,88746
109325,88602
109137,88524
108933,88524
108745,88602
108601,88746
108523,88934
108522,89137
108600,89325
108661,89386
108661,94375
108659,94377
108626,94456
108626,94542
108626,94842
108659,94922
108686,94949
108659,94977
108626,95056
108626,95142
108626,95442
108630,95453
107561,96522
107503,96608
107483,96710
107483,97230
106196,97230
104469,95503
104473,95493
104473,95407
104473,95107
104440,95027
104413,95000
104440,94972
104473,94893
104473,94807
104473,94683
106019,94683
106121,94663
106121,94663
106207,94605
106943,93869
106966,93879
107169,93879
107358,93801
107502,93658
107580,93470
107580,93266
107502,93078
107358,92934
107170,92856
106967,92855
106778,92933
106634,93077
106556,93265
106556,93469
106566,93492
105908,94150
104172,94150
104123,94160
104123,94113
104103,94011
104045,93925
104045,93925
101904,91784
101914,91761
101914,91557
101836,91369
101692,91225
101611,91191
110737,82066
110862,82066
111070,81980
111230,81821
111249,81773
111269,81820
111428,81980
111574,82040
" /> 
</g>
<g style="fill:#000000; fill-opacity:1.0; 
stroke:#000000; stroke-width:59.0551; stroke-opacity:1; 
stroke-linecap:round; stroke-linejoin:round;">
<polyline style="fill-rule:evenodd;"
points="117776,80924
117690,80933
117637,80933
117620,80940
117580,80944
117476,80987
117470,81002
117429,81019
117269,81178
117252,81220
117248,81222
117230,81179
117071,81019
116863,80933
116637,80933
116429,81019
116269,81178
116250,81226
116230,81179
116071,81019
115863,80933
115637,80933
115429,81019
115269,81178
115250,81226
115230,81179
115071,81019
114863,80933
114637,80933
114429,81019
114269,81178
114250,81226
114230,81179
114071,81019
113863,80933
113637,80933
113429,81019
113269,81178
113250,81226
113230,81179
113071,81019
112863,80933
112637,80933
112429,81019
112379,81069
112218,80908
117760,80908
117776,80924
" /> 
</g>
<g style="fill:#000000; fill-opacity:0.0; 
stroke:#000000; stroke-width:39.3701; stroke-opacity:1; 
stroke-linecap:round; stroke-linejoin:round;">
<polyline fill="none;"
points="117776,80924
117690,80933
117637,80933
117620,80940
117580,80944
117476,80987
117470,81002
117429,81019
117269,81178
117252,81220
117248,81222
117230,81179
117071,81019
116863,80933
116637,80933
116429,81019
116269,81178
116250,81226
116230,81179
116071,81019
115863,80933
115637,80933
115429,81019
115269,81178
115250,81226
115230,81179
115071,81019
114863,80933
114637,80933
114429,81019
114269,81178
114250,81226
114230,81179
114071,81019
113863,80933
113637,80933
113429,81019
113269,81178
113250,81226
113230,81179
113071,81019
112863,80933
112637,80933
112429,81019
112379,81069
112218,80908
117760,80908
117776,80924
" /> 
</g>
<g style="fill:#000000; fill-opacity:1.0; 
stroke:#000000; stroke-width:59.0551; stroke-opacity:1; 
stroke-linecap:round; stroke-linejoin:round;">
<polyline style="fill-rule:evenodd;"
points="118785,80933
118637,80933
118597,80949
118075,80427
117984,80366
117876,80345
109893,80345
109893,77576
109893,75805
102106,75805
102106,77576
109893,77576
109893,80345
96892,80345
96784,80366
96693,80427
96086,81035
96071,81019
95863,80933
95637,80933
95429,81019
95269,81178
95251,81222
95247,81220
95230,81179
95071,81019
95029,81002
95023,80987
94911,80953
94863,80933
94844,80933
94806,80921
94690,80933
94637,80933
94620,80940
94580,80944
94476,80987
94470,81002
94429,81019
94269,81178
94252,81220
94250,81221
94247,81220
94230,81179
94071,81019
94029,81002
94023,80987
93911,80953
93863,80933
93844,80933
93806,80921
93690,80933
93637,80933
93620,80940
93580,80944
93508,80974
93508,80022
93588,80046
93636,80066
93655,80066
93693,80078
93809,80066
93862,80066
93879,80059
93919,80055
94023,80012
94029,79997
94070,79980
94230,79821
94247,79779
94250,79778
94252,79779
94269,79820
94428,79980
94470,79997
94476,80012
94588,80046
94636,80066
94655,80066
94693,80078
94809,80066
94862,80066
94879,80059
94919,80055
95023,80012
95029,79997
95070,79980
95230,79821
95247,79779
95250,79778
95252,79779
95269,79820
95428,79980
95470,79997
95476,80012
95588,80046
95636,80066
95655,80066
95693,80078
95809,80066
95862,80066
95879,80059
95919,80055
96023,80012
96029,79997
96070,79980
96230,79821
96247,79779
96250,79778
96252,79779
96269,79820
96428,79980
96470,79997
96476,80012
96588,80046
96636,80066
96655,80066
96693,80078
96809,80066
96862,80066
96879,80059
96919,80055
97023,80012
97029,79997
97070,79980
97230,79821
97247,79779
97262,79773
97296,79661
97316,79613
97316,79594
97328,79556
97316,79440
97316,79387
97309,79370
97305,79330
97262,79226
97247,79220
97230,79179
97071,79019
97029,79002
97023,78987
96911,78953
96863,78933
96844,78933
96806,78921
96690,78933
96637,78933
96620,78940
96580,78944
96476,78987
96470,79002
96429,79019
96269,79178
96252,79220
96250,79221
96247,79220
96230,79179
96071,79019
96029,79002
96028,79000
96029,78997
96070,78980
96230,78821
96247,78779
96262,78773
96296,78661
96316,78613
96316,78594
96328,78556
96316,78440
96316,78387
96309,78370
96305,78330
96262,78226
96247,78220
96230,78179
96071,78019
96029,78002
96028,78000
96029,77997
96070,77980
96230,77821
96247,77779
96262,77773
96296,77661
96316,77613
96316,77594
96328,77556
96316,77440
96316,77387
96309,77370
96305,77330
96262,77226
96247,77220
96230,77179
96071,77019
96029,77002
96028,77000
96029,76997
96070,76980
96230,76821
96247,76779
96262,76773
96296,76661
96316,76613
96316,76594
96328,76556
96316,76440
96316,76387
96309,76370
96305,76330
96262,76226
96247,76220
96230,76179
96071,76019
96029,76002
96028,76000
96029,75997
96070,75980
96230,75821
96247,75779
96262,75773
96296,75661
96316,75613
96316,75594
96328,75556
96316,75440
96316,75387
96309,75370
96305,75330
96262,75226
96247,75220
96230,75179
96071,75019
96029,75002
96028,75000
96029,74997
96070,74980
96230,74821
96247,74779
96262,74773
96296,74661
96316,74613
96316,74594
96328,74556
96316,74440
96316,74387
96309,74370
96305,74330
96262,74226
96247,74220
96230,74179
96071,74019
96029,74002
96023,73987
95911,73953
95863,73933
95844,73933
95806,73921
95690,73933
95637,73933
95620,73940
95580,73944
95476,73987
95470,74002
95429,74019
95269,74178
95252,74220
95250,74221
95247,74220
95230,74179
95071,74019
95029,74002
95023,73987
94911,73953
94863,73933
94844,73933
94806,73921
94690,73933
94637,73933
94620,73940
94580,73944
94476,73987
94470,74002
94429,74019
94269,74178
94252,74220
94250,74221
94247,74220
94230,74179
94071,74019
94029,74002
94023,73987
93911,73953
93863,73933
93844,73933
93806,73921
93690,73933
93637,73933
93620,73940
93580,73944
93508,73974
93508,72763
93636,72816
93862,72816
93902,72800
94751,73649
94751,73649
94842,73710
94950,73731
94950,73731
116557,73731
118043,75217
118039,75225
118039,75429
118117,75617
118261,75761
118270,75764
118270,80301
118291,80409
118352,80500
118785,80933
" /> 
</g>
<g style="fill:#000000; fill-opacity:0.0; 
stroke:#000000; stroke-width:39.3701; stroke-opacity:1; 
stroke-linecap:round; stroke-linejoin:round;">
<polyline fill="none;"
points="118785,80933
118637,80933
118597,80949
118075,80427
117984,80366
117876,80345
109893,80345
109893,77576
109893,75805
102106,75805
102106,77576
109893,77576
109893,80345
96892,80345
96784,80366
96693,80427
96086,81035
96071,81019
95863,80933
95637,80933
95429,81019
95269,81178
95251,81222
95247,81220
95230,81179
95071,81019
95029,81002
95023,80987
94911,80953
94863,80933
94844,80933
94806,80921
94690,80933
94637,80933
94620,80940
94580,80944
94476,80987
94470,81002
94429,81019
94269,81178
94252,81220
94250,81221
94247,81220
94230,81179
94071,81019
94029,81002
94023,80987
93911,80953
93863,80933
93844,80933
93806,80921
93690,80933
93637,80933
93620,80940
93580,80944
93508,80974
93508,80022
93588,80046
93636,80066
93655,80066
93693,80078
93809,80066
93862,80066
93879,80059
93919,80055
94023,80012
94029,79997
94070,79980
94230,79821
94247,79779
94250,79778
94252,79779
94269,79820
94428,79980
94470,79997
94476,80012
94588,80046
94636,80066
94655,80066
94693,80078
94809,80066
94862,80066
94879,80059
94919,80055
95023,80012
95029,79997
95070,79980
95230,79821
95247,79779
95250,79778
95252,79779
95269,79820
95428,79980
95470,79997
95476,80012
95588,80046
95636,80066
95655,80066
95693,80078
95809,80066
95862,80066
95879,80059
95919,80055
96023,80012
96029,79997
96070,79980
96230,79821
96247,79779
96250,79778
96252,79779
96269,79820
96428,79980
96470,79997
96476,80012
96588,80046
96636,80066
96655,80066
96693,80078
96809,80066
96862,80066
96879,80059
96919,80055
97023,80012
97029,79997
97070,79980
97230,79821
97247,79779
97262,79773
97296,79661
97316,79613
97316,79594
97328,79556
97316,79440
97316,79387
97309,79370
97305,79330
97262,79226
97247,79220
97230,79179
97071,79019
97029,79002
97023,78987
96911,78953
96863,78933
96844,78933
96806,78921
96690,78933
96637,78933
96620,78940
96580,78944
96476,78987
96470,79002
96429,79019
96269,79178
96252,79220
96250,79221
96247,79220
96230,79179
96071,79019
96029,79002
96028,79000
96029,78997
96070,78980
96230,78821
96247,78779
96262,78773
96296,78661
96316,78613
96316,78594
96328,78556
96316,78440
96316,78387
96309,78370
96305,78330
96262,78226
96247,78220
96230,78179
96071,78019
96029,78002
96028,78000
96029,77997
96070,77980
96230,77821
96247,77779
96262,77773
96296,77661
96316,77613
96316,77594
96328,77556
96316,77440
96316,77387
96309,77370
96305,77330
96262,77226
96247,77220
96230,77179
96071,77019
96029,77002
96028,77000
96029,76997
96070,76980
96230,76821
96247,76779
96262,76773
96296,76661
96316,76613
96316,76594
96328,76556
96316,76440
96316,76387
96309,76370
96305,76330
96262,76226
96247,76220
96230,76179
96071,76019
96029,76002
96028,76000
96029,75997
96070,75980
96230,75821
96247,75779
96262,75773
96296,75661
96316,75613
96316,75594
96328,75556
96316,75440
96316,75387
96309,75370
96305,75330
96262,75226
96247,75220
96230,75179
96071,75019
96029,75002
96028,75000
96029,74997
96070,74980
96230,74821
96247,74779
96262,74773
96296,74661
96316,74613
96316,74594
96328,74556
96316,74440
96316,74387
96309,74370
96305,74330
96262,74226
96247,74220
96230,74179
96071,74019
96029,74002
96023,73987
95911,73953
95863,73933
95844,73933
95806,73921
95690,73933
95637,73933
95620,73940
95580,73944
95476,73987
95470,74002
95429,74019
95269,74178
95252,74220
95250,74221
95247,74220
95230,74179
95071,74019
95029,74002
95023,73987
94911,73953
94863,73933
94844,73933
94806,73921
94690,73933
94637,73933
94620,73940
94580,73944
94476,73987
94470,74002
94429,74019
94269,74178
94252,74220
94250,74221
94247,74220
94230,74179
94071,74019
94029,74002
94023,73987
93911,73953
93863,73933
93844,73933
93806,73921
93690,73933
93637,73933
93620,73940
93580,73944
93508,73974
93508,72763
93636,72816
93862,72816
93902,72800
94751,73649
94751,73649
94842,73710
94950,73731
94950,73731
116557,73731
118043,75217
118039,75225
118039,75429
118117,75617
118261,75761
118270,75764
118270,80301
118291,80409
118352,80500
118785,80933
" /> 
</g>
<g style="fill:#000000; fill-opacity:1.0; 
stroke:#000000; stroke-width:59.0551; stroke-opacity:1; 
stroke-linecap:round; stroke-linejoin:round;">
<polyline style="fill-rule:evenodd;"
points="120513,86013
111750,86013
111659,86031
111582,86082
111531,86159
111513,86250
111513,88000
111513,91750
111513,97230
111016,97230
111016,96410
110996,96308
110938,96222
110938,96222
110169,95453
110173,95443
110173,95357
110173,95151
110219,95121
111418,93921
111418,93921
111476,93835
111496,93733
111496,93733
111496,83130
112582,82044
112636,82066
112862,82066
113070,81980
113230,81821
113249,81773
113269,81820
113428,81980
113636,82066
113862,82066
114070,81980
114230,81821
114249,81773
114269,81820
114428,81980
114636,82066
114862,82066
115070,81980
115230,81821
115249,81773
115269,81820
115428,81980
115636,82066
115862,82066
116070,81980
116230,81821
116249,81773
116269,81820
116428,81980
116636,82066
116862,82066
117070,81980
117230,81821
117248,81777
117252,81779
117269,81820
117428,81980
117470,81997
117476,82012
117588,82046
117636,82066
117655,82066
117693,82078
117809,82066
117862,82066
117879,82059
117919,82055
118023,82012
118029,81997
118070,81980
118230,81821
118247,81779
118251,81777
118269,81820
118428,81980
118636,82066
118862,82066
119070,81980
119230,81821
119249,81773
119269,81820
119428,81980
119636,82066
119862,82066
120070,81980
120230,81821
120316,81613
120316,81387
120230,81179
120071,81019
119863,80933
119637,80933
119597,80949
118833,80185
118833,75765
118841,75761
118985,75617
119063,75429
119063,75226
118985,75038
118841,74894
118653,74815
118450,74815
118441,74819
116873,73251
116781,73190
116674,73168
95066,73168
94723,72825
94809,72816
94862,72816
94879,72809
94919,72805
95023,72762
95029,72747
95070,72730
95230,72571
95247,72529
95250,72528
95252,72529
95269,72570
95428,72730
95470,72747
95476,72762
95588,72796
95636,72816
95655,72816
95693,72828
95809,72816
95862,72816
95879,72809
95919,72805
96023,72762
96029,72747
96070,72730
96230,72571
96247,72529
96251,72527
96269,72570
96428,72730
96636,72816
96862,72816
97070,72730
97230,72571
97248,72527
97252,72529
97269,72570
97428,72730
97470,72747
97476,72762
97588,72796
97636,72816
97655,72816
97693,72828
97809,72816
97862,72816
97879,72809
97919,72805
98023,72762
98029,72747
98070,72730
98230,72571
98247,72529
98251,72527
98269,72570
98428,72730
98636,72816
98862,72816
99070,72730
99230,72571
99249,72523
99269,72570
99428,72730
99636,72816
99862,72816
100070,72730
100230,72571
100249,72523
100269,72570
100428,72730
100636,72816
100862,72816
101070,72730
101230,72571
101249,72523
101269,72570
101428,72730
101636,72816
101862,72816
102070,72730
102230,72571
102249,72523
102269,72570
102428,72730
102636,72816
102862,72816
103070,72730
103230,72571
103249,72523
103269,72570
103428,72730
103636,72816
103862,72816
104070,72730
104230,72571
104249,72523
104269,72570
104428,72730
104636,72816
104862,72816
105070,72730
105230,72571
105249,72523
105269,72570
105428,72730
105636,72816
105862,72816
106070,72730
106230,72571
106249,72523
106269,72570
106428,72730
106636,72816
106862,72816
107070,72730
107230,72571
107249,72523
107269,72570
107428,72730
107636,72816
107862,72816
108070,72730
108230,72571
108249,72523
108269,72570
108428,72730
108636,72816
108862,72816
109070,72730
109230,72571
109249,72523
109269,72570
109428,72730
109636,72816
109862,72816
110070,72730
110230,72571
110249,72523
110269,72570
110428,72730
110636,72816
110862,72816
111070,72730
111230,72571
111249,72523
111269,72570
111428,72730
111636,72816
111862,72816
112070,72730
112230,72571
112248,72527
112252,72529
112269,72570
112428,72730
112470,72747
112476,72762
112588,72796
112636,72816
112655,72816
112693,72828
112809,72816
112862,72816
112879,72809
112919,72805
113023,72762
113029,72747
113070,72730
113230,72571
113247,72529
113250,72528
113252,72529
113269,72570
113428,72730
113470,72747
113476,72762
113588,72796
113636,72816
113655,72816
113693,72828
113809,72816
113862,72816
113879,72809
113919,72805
114023,72762
114029,72747
114070,72730
114230,72571
114247,72529
114250,72528
114252,72529
114269,72570
114428,72730
114470,72747
114476,72762
114588,72796
114636,72816
114655,72816
114693,72828
114809,72816
114862,72816
114879,72809
114919,72805
115023,72762
115029,72747
115070,72730
115230,72571
115247,72529
115250,72528
115252,72529
115269,72570
115428,72730
115470,72747
115476,72762
115588,72796
115636,72816
115655,72816
115693,72828
115809,72816
115862,72816
115879,72809
115919,72805
116023,72762
116029,72747
116070,72730
116230,72571
116247,72529
116250,72528
116252,72529
116269,72570
116428,72730
116470,72747
116476,72762
116588,72796
116636,72816
116655,72816
116693,72828
116809,72816
116862,72816
116879,72809
116919,72805
117023,72762
117029,72747
117070,72730
117230,72571
117247,72529
117250,72528
117252,72529
117269,72570
117428,72730
117470,72747
117476,72762
117588,72796
117636,72816
117655,72816
117693,72828
117809,72816
117862,72816
117879,72809
117919,72805
118023,72762
118029,72747
118070,72730
118230,72571
118247,72529
118250,72528
118252,72529
118269,72570
118428,72730
118470,72747
118476,72762
118588,72796
118636,72816
118655,72816
118693,72828
118809,72816
118862,72816
118879,72809
118919,72805
119023,72762
119029,72747
119070,72730
119230,72571
119247,72529
119251,72527
119269,72570
119428,72730
119636,72816
119862,72816
120070,72730
120230,72571
120316,72363
120316,72137
120230,71929
120071,71769
119863,71683
119637,71683
119429,71769
119269,71928
119251,71972
119247,71970
119230,71929
119071,71769
119029,71752
119023,71737
118911,71703
118863,71683
118844,71683
118806,71671
118690,71683
118637,71683
118620,71690
118580,71694
118476,71737
118470,71752
118429,71769
118269,71928
118252,71970
118250,71971
118247,71970
118230,71929
118071,71769
118029,71752
118023,71737
117911,71703
117863,71683
117844,71683
117806,71671
117690,71683
117637,71683
117620,71690
117580,71694
117476,71737
117470,71752
117429,71769
117269,71928
117252,71970
117250,71971
117247,71970
117230,71929
117071,71769
117029,71752
117023,71737
116911,71703
116863,71683
116844,71683
116806,71671
116690,71683
116637,71683
116620,71690
116580,71694
116476,71737
116470,71752
116429,71769
116269,71928
116252,71970
116250,71971
116247,71970
116230,71929
116071,71769
116029,71752
116023,71737
115911,71703
115863,71683
115844,71683
115806,71671
115690,71683
115637,71683
115620,71690
115580,71694
115476,71737
115470,71752
115429,71769
115269,71928
115252,71970
115250,71971
115247,71970
115230,71929
115071,71769
115029,71752
115023,71737
114911,71703
114863,71683
114844,71683
114806,71671
114690,71683
114637,71683
114620,71690
114580,71694
114476,71737
114470,71752
114429,71769
114269,71928
114252,71970
114250,71971
114247,71970
114230,71929
114071,71769
114029,71752
114023,71737
113911,71703
113863,71683
113844,71683
113806,71671
113690,71683
113637,71683
113620,71690
113580,71694
113476,71737
113470,71752
113429,71769
113269,71928
113252,71970
113250,71971
113247,71970
113230,71929
113071,71769
113029,71752
113023,71737
112911,71703
112863,71683
112844,71683
112806,71671
112690,71683
112637,71683
112620,71690
112580,71694
112476,71737
112470,71752
112429,71769
112269,71928
112252,71970
112248,71972
112230,71929
112071,71769
111863,71683
111637,71683
111429,71769
111269,71928
111250,71976
111230,71929
111071,71769
110863,71683
110637,71683
110429,71769
110269,71928
110250,71976
110230,71929
110071,71769
109863,71683
109637,71683
109429,71769
109269,71928
109250,71976
109230,71929
109071,71769
108863,71683
108637,71683
108429,71769
108269,71928
108250,71976
108230,71929
108071,71769
107863,71683
107637,71683
107429,71769
107269,71928
107250,71976
107230,71929
107071,71769
106863,71683
106637,71683
106429,71769
106269,71928
106250,71976
106230,71929
106071,71769
105863,71683
105637,71683
105429,71769
105269,71928
105250,71976
105230,71929
105071,71769
104863,71683
104637,71683
104429,71769
104269,71928
104250,71976
104230,71929
104071,71769
103863,71683
103637,71683
103429,71769
103269,71928
103250,71976
103230,71929
103071,71769
102863,71683
102637,71683
102429,71769
102269,71928
102250,71976
102230,71929
102071,71769
101863,71683
101637,71683
101429,71769
101269,71928
101250,71976
101230,71929
101071,71769
100863,71683
100637,71683
100429,71769
100269,71928
100250,71976
100230,71929
100071,71769
99863,71683
99637,71683
99429,71769
99269,71928
99250,71976
99230,71929
99071,71769
98863,71683
98637,71683
98582,71706
98455,71578
98369,71520
98267,71500
93547,71500
93445,71520
93358,71578
93053,71883
92996,71970
92986,72019
92986,71500
92986,71236
120513,71236
120513,71500
120513,86013
" /> 
</g>
<g style="fill:#000000; fill-opacity:0.0; 
stroke:#000000; stroke-width:39.3701; stroke-opacity:1; 
stroke-linecap:round; stroke-linejoin:round;">
<polyline fill="none;"
points="120513,86013
111750,86013
111659,86031
111582,86082
111531,86159
111513,86250
111513,88000
111513,91750
111513,97230
111016,97230
111016,96410
110996,96308
110938,96222
110938,96222
110169,95453
110173,95443
110173,95357
110173,95151
110219,95121
111418,93921
111418,93921
111476,93835
111496,93733
111496,93733
111496,83130
112582,82044
112636,82066
112862,82066
113070,81980
113230,81821
113249,81773
113269,81820
113428,81980
113636,82066
113862,82066
114070,81980
114230,81821
114249,81773
114269,81820
114428,81980
114636,82066
114862,82066
115070,81980
115230,81821
115249,81773
115269,81820
115428,81980
115636,82066
115862,82066
116070,81980
116230,81821
116249,81773
116269,81820
116428,81980
116636,82066
116862,82066
117070,81980
117230,81821
117248,81777
117252,81779
117269,81820
117428,81980
117470,81997
117476,82012
117588,82046
117636,82066
117655,82066
117693,82078
117809,82066
117862,82066
117879,82059
117919,82055
118023,82012
118029,81997
118070,81980
118230,81821
118247,81779
118251,81777
118269,81820
118428,81980
118636,82066
118862,82066
119070,81980
119230,81821
119249,81773
119269,81820
119428,81980
119636,82066
119862,82066
120070,81980
120230,81821
120316,81613
120316,81387
120230,81179
120071,81019
119863,80933
119637,80933
119597,80949
118833,80185
118833,75765
118841,75761
118985,75617
119063,75429
119063,75226
118985,75038
118841,74894
118653,74815
118450,74815
118441,74819
116873,73251
116781,73190
116674,73168
95066,73168
94723,72825
94809,72816
94862,72816
94879,72809
94919,72805
95023,72762
95029,72747
95070,72730
95230,72571
95247,72529
95250,72528
95252,72529
95269,72570
95428,72730
95470,72747
95476,72762
95588,72796
95636,72816
95655,72816
95693,72828
95809,72816
95862,72816
95879,72809
95919,72805
96023,72762
96029,72747
96070,72730
96230,72571
96247,72529
96251,72527
96269,72570
96428,72730
96636,72816
96862,72816
97070,72730
97230,72571
97248,72527
97252,72529
97269,72570
97428,72730
97470,72747
97476,72762
97588,72796
97636,72816
97655,72816
97693,72828
97809,72816
97862,72816
97879,72809
97919,72805
98023,72762
98029,72747
98070,72730
98230,72571
98247,72529
98251,72527
98269,72570
98428,72730
98636,72816
98862,72816
99070,72730
99230,72571
99249,72523
99269,72570
99428,72730
99636,72816
99862,72816
100070,72730
100230,72571
100249,72523
100269,72570
100428,72730
100636,72816
100862,72816
101070,72730
101230,72571
101249,72523
101269,72570
101428,72730
101636,72816
101862,72816
102070,72730
102230,72571
102249,72523
102269,72570
102428,72730
102636,72816
102862,72816
103070,72730
103230,72571
103249,72523
103269,72570
103428,72730
103636,72816
103862,72816
104070,72730
104230,72571
104249,72523
104269,72570
104428,72730
104636,72816
104862,72816
105070,72730
105230,72571
105249,72523
105269,72570
105428,72730
105636,72816
105862,72816
106070,72730
106230,72571
106249,72523
106269,72570
106428,72730
106636,72816
106862,72816
107070,72730
107230,72571
107249,72523
107269,72570
107428,72730
107636,72816
107862,72816
108070,72730
108230,72571
108249,72523
108269,72570
108428,72730
108636,72816
108862,72816
109070,72730
109230,72571
109249,72523
109269,72570
109428,72730
109636,72816
109862,72816
110070,72730
110230,72571
110249,72523
110269,72570
110428,72730
110636,72816
110862,72816
111070,72730
111230,72571
111249,72523
111269,72570
111428,72730
111636,72816
111862,72816
112070,72730
112230,72571
112248,72527
112252,72529
112269,72570
112428,72730
112470,72747
112476,72762
112588,72796
112636,72816
112655,72816
112693,72828
112809,72816
112862,72816
112879,72809
112919,72805
113023,72762
113029,72747
113070,72730
113230,72571
113247,72529
113250,72528
113252,72529
113269,72570
113428,72730
113470,72747
113476,72762
113588,72796
113636,72816
113655,72816
113693,72828
113809,72816
113862,72816
113879,72809
113919,72805
114023,72762
114029,72747
114070,72730
114230,72571
114247,72529
114250,72528
114252,72529
114269,72570
114428,72730
114470,72747
114476,72762
114588,72796
114636,72816
114655,72816
114693,72828
114809,72816
114862,72816
114879,72809
114919,72805
115023,72762
115029,72747
115070,72730
115230,72571
115247,72529
115250,72528
115252,72529
115269,72570
115428,72730
115470,72747
115476,72762
115588,72796
115636,72816
115655,72816
115693,72828
115809,72816
115862,72816
115879,72809
115919,72805
116023,72762
116029,72747
116070,72730
116230,72571
116247,72529
116250,72528
116252,72529
116269,72570
116428,72730
116470,72747
116476,72762
116588,72796
116636,72816
116655,72816
116693,72828
116809,72816
116862,72816
116879,72809
116919,72805
117023,72762
117029,72747
117070,72730
117230,72571
117247,72529
117250,72528
117252,72529
117269,72570
117428,72730
117470,72747
117476,72762
117588,72796
117636,72816
117655,72816
117693,72828
117809,72816
117862,72816
117879,72809
117919,72805
118023,72762
118029,72747
118070,72730
118230,72571
118247,72529
118250,72528
118252,72529
118269,72570
118428,72730
118470,72747
118476,72762
118588,72796
118636,72816
118655,72816
118693,72828
118809,72816
118862,72816
118879,72809
118919,72805
119023,72762
119029,72747
119070,72730
119230,72571
119247,72529
119251,72527
119269,72570
119428,72730
119636,72816
119862,72816
120070,72730
120230,72571
120316,72363
120316,72137
120230,71929
120071,71769
119863,71683
119637,71683
119429,71769
119269,71928
119251,71972
119247,71970
119230,71929
119071,71769
119029,71752
119023,71737
118911,71703
118863,71683
118844,71683
118806,71671
118690,71683
118637,71683
118620,71690
118580,71694
118476,71737
118470,71752
118429,71769
118269,71928
118252,71970
118250,71971
118247,71970
118230,71929
118071,71769
118029,71752
118023,71737
117911,71703
117863,71683
117844,71683
117806,71671
117690,71683
117637,71683
117620,71690
117580,71694
117476,71737
117470,71752
117429,71769
117269,71928
117252,71970
117250,71971
117247,71970
117230,71929
117071,71769
117029,71752
117023,71737
116911,71703
116863,71683
116844,71683
116806,71671
116690,71683
116637,71683
116620,71690
116580,71694
116476,71737
116470,71752
116429,71769
116269,71928
116252,71970
116250,71971
116247,71970
116230,71929
116071,71769
116029,71752
116023,71737
115911,71703
115863,71683
115844,71683
115806,71671
115690,71683
115637,71683
115620,71690
115580,71694
115476,71737
115470,71752
115429,71769
115269,71928
115252,71970
115250,71971
115247,71970
115230,71929
115071,71769
115029,71752
115023,71737
114911,71703
114863,71683
114844,71683
114806,71671
114690,71683
114637,71683
114620,71690
114580,71694
114476,71737
114470,71752
114429,71769
114269,71928
114252,71970
114250,71971
114247,71970
114230,71929
114071,71769
114029,71752
114023,71737
113911,71703
113863,71683
113844,71683
113806,71671
113690,71683
113637,71683
113620,71690
113580,71694
113476,71737
113470,71752
113429,71769
113269,71928
113252,71970
113250,71971
113247,71970
113230,71929
113071,71769
113029,71752
113023,71737
112911,71703
112863,71683
112844,71683
112806,71671
112690,71683
112637,71683
112620,71690
112580,71694
112476,71737
112470,71752
112429,71769
112269,71928
112252,71970
112248,71972
112230,71929
112071,71769
111863,71683
111637,71683
111429,71769
111269,71928
111250,71976
111230,71929
111071,71769
110863,71683
110637,71683
110429,71769
110269,71928
110250,71976
110230,71929
110071,71769
109863,71683
109637,71683
109429,71769
109269,71928
109250,71976
109230,71929
109071,71769
108863,71683
108637,71683
108429,71769
108269,71928
108250,71976
108230,71929
108071,71769
107863,71683
107637,71683
107429,71769
107269,71928
107250,71976
107230,71929
107071,71769
106863,71683
106637,71683
106429,71769
106269,71928
106250,71976
106230,71929
106071,71769
105863,71683
105637,71683
105429,71769
105269,71928
105250,71976
105230,71929
105071,71769
104863,71683
104637,71683
104429,71769
104269,71928
104250,71976
104230,71929
104071,71769
103863,71683
103637,71683
103429,71769
103269,71928
103250,71976
103230,71929
103071,71769
102863,71683
102637,71683
102429,71769
102269,71928
102250,71976
102230,71929
102071,71769
101863,71683
101637,71683
101429,71769
101269,71928
101250,71976
101230,71929
101071,71769
100863,71683
100637,71683
100429,71769
100269,71928
100250,71976
100230,71929
100071,71769
99863,71683
99637,71683
99429,71769
99269,71928
99250,71976
99230,71929
99071,71769
98863,71683
98637,71683
98582,71706
98455,71578
98369,71520
98267,71500
93547,71500
93445,71520
93358,71578
93053,71883
92996,71970
92986,72019
92986,71500
92986,71236
120513,71236
120513,71500
120513,86013
" /> 
</g>
<g style="fill:#000000; fill-opacity:1.0; 
stroke:#000000; stroke-width:59.0551; stroke-opacity:1; 
stroke-linecap:round; stroke-linejoin:round;">
<polyline style="fill-rule:evenodd;"
points="120980,70970
120968,70909
120917,70832
120840,70781
120779,70769
120980,70769
120980,70970
" /> 
</g>
<g style="fill:#000000; fill-opacity:0.0; 
stroke:#000000; stroke-width:39.3701; stroke-opacity:1; 
stroke-linecap:round; stroke-linejoin:round;">
<polyline fill="none;"
points="120980,70970
120968,70909
120917,70832
120840,70781
120779,70769
120980,70769
120980,70970
" /> 
</g>
<g style="fill:#000000; fill-opacity:1.0; 
stroke:#000000; stroke-width:59.0551; stroke-opacity:1; 
stroke-linecap:round; stroke-linejoin:round;">
<polyline style="fill-rule:evenodd;"
points="120980,86480
120779,86480
120840,86468
120917,86417
120968,86340
120980,86279
120980,86480
" /> 
</g>
<g style="fill:#000000; fill-opacity:0.0; 
stroke:#000000; stroke-width:39.3701; stroke-opacity:1; 
stroke-linecap:round; stroke-linejoin:round;">
<polyline fill="none;"
points="120980,86480
120779,86480
120840,86468
120917,86417
120968,86340
120980,86279
120980,86480
" /> 
</g>
<g style="fill:#FFFFFF; fill-opacity:0.0; 
stroke:#FFFFFF; stroke-width:59.0551; stroke-opacity:1; 
stroke-linecap:round; stroke-linejoin:round;">
</g>
<g style="fill:#FFFFFF; fill-opacity:1.0; 
stroke:#FFFFFF; stroke-width:59.0551; stroke-opacity:1; 
stroke-linecap:round; stroke-linejoin:round;">
<circle cx="96216.3" cy="83866.2" r="39.3701" /> 
<circle cx="98510.7" cy="92731.2" r="39.3701" /> 
<circle cx="101402" cy="91659.2" r="39.3701" /> 
<circle cx="107068" cy="93367.8" r="39.3701" /> 
<circle cx="109035" cy="89036.3" r="39.3701" /> 
<circle cx="109655" cy="91015.9" r="39.3701" /> 
<circle cx="106240" cy="85323.1" r="39.3701" /> 
<circle cx="105234" cy="86070" r="39.3701" /> 
<circle cx="100923" cy="94123.6" r="39.3701" /> 
<circle cx="103656" cy="83457" r="39.3701" /> 
<circle cx="98078" cy="89420.4" r="39.3701" /> 
<circle cx="96905.4" cy="93964" r="39.3701" /> 
<circle cx="97750" cy="97853" r="39.3701" /> 
<circle cx="118552" cy="75327.7" r="39.3701" /> 
<circle cx="97643.2" cy="94344.9" r="39.3701" /> 
<circle cx="119750" cy="81500" r="39.3701" /> 
<circle cx="118750" cy="81500" r="39.3701" /> 
<circle cx="117750" cy="81500" r="39.3701" /> 
<circle cx="116750" cy="81500" r="39.3701" /> 
<circle cx="115750" cy="81500" r="39.3701" /> 
<circle cx="114750" cy="81500" r="39.3701" /> 
<circle cx="113750" cy="81500" r="39.3701" /> 
<circle cx="112750" cy="81500" r="39.3701" /> 
<circle cx="111750" cy="81500" r="39.3701" /> 
<circle cx="110750" cy="81500" r="39.3701" /> 
<circle cx="109750" cy="81500" r="39.3701" /> 
<circle cx="108750" cy="81500" r="39.3701" /> 
<circle cx="107750" cy="81500" r="39.3701" /> 
<circle cx="106750" cy="81500" r="39.3701" /> 
<circle cx="105750" cy="81500" r="39.3701" /> 
<circle cx="104750" cy="81500" r="39.3701" /> 
<circle cx="103750" cy="81500" r="39.3701" /> 
<circle cx="102750" cy="81500" r="39.3701" /> 
<circle cx="101750" cy="81500" r="39.3701" /> 
<circle cx="100750" cy="81500" r="39.3701" /> 
<circle cx="99750" cy="81500" r="39.3701" /> 
<circle cx="98750" cy="81500" r="39.3701" /> 
<circle cx="97750" cy="81500" r="39.3701" /> 
<circle cx="96750" cy="81500" r="39.3701" /> 
<circle cx="95750" cy="81500" r="39.3701" /> 
<circle cx="94750" cy="81500" r="39.3701" /> 
<circle cx="93750" cy="81500" r="39.3701" /> 
<circle cx="119750" cy="72250" r="39.3701" /> 
<circle cx="118750" cy="72250" r="39.3701" /> 
<circle cx="117750" cy="72250" r="39.3701" /> 
<circle cx="116750" cy="72250" r="39.3701" /> 
<circle cx="115750" cy="72250" r="39.3701" /> 
<circle cx="114750" cy="72250" r="39.3701" /> 
<circle cx="113750" cy="72250" r="39.3701" /> 
<circle cx="112750" cy="72250" r="39.3701" /> 
<circle cx="110750" cy="72250" r="39.3701" /> 
<circle cx="109750" cy="72250" r="39.3701" /> 
<circle cx="108750" cy="72250" r="39.3701" /> 
<circle cx="107750" cy="72250" r="39.3701" /> 
<circle cx="106750" cy="72250" r="39.3701" /> 
<circle cx="105750" cy="72250" r="39.3701" /> 
<circle cx="104750" cy="72250" r="39.3701" /> 
<circle cx="103750" cy="72250" r="39.3701" /> 
<circle cx="102750" cy="72250" r="39.3701" /> 
<circle cx="101750" cy="72250" r="39.3701" /> 
<circle cx="100750" cy="72250" r="39.3701" /> 
<circle cx="99750" cy="72250" r="39.3701" /> 
<circle cx="98750" cy="72250" r="39.3701" /> 
<circle cx="97750" cy="72250" r="39.3701" /> 
<circle cx="96750" cy="72250" r="39.3701" /> 
<circle cx="95750" cy="72250" r="39.3701" /> 
<circle cx="94750" cy="72250" r="39.3701" /> 
<circle cx="93750" cy="72250" r="39.3701" /> 
<circle cx="111750" cy="72250" r="39.3701" /> 
<circle cx="93750" cy="74500" r="39.3701" /> 
<circle cx="94750" cy="74500" r="39.3701" /> 
<circle cx="95750" cy="74500" r="39.3701" /> 
<circle cx="93750" cy="75500" r="39.3701" /> 
<circle cx="94750" cy="75500" r="39.3701" /> 
<circle cx="95750" cy="75500" r="39.3701" /> 
<circle cx="93750" cy="76500" r="39.3701" /> 
<circle cx="94750" cy="76500" r="39.3701" /> 
<circle cx="95750" cy="76500" r="39.3701" /> 
<circle cx="93750" cy="77500" r="39.3701" /> 
<circle cx="94750" cy="77500" r="39.3701" /> 
<circle cx="95750" cy="77500" r="39.3701" /> 
<circle cx="93750" cy="78500" r="39.3701" /> 
<circle cx="94750" cy="78500" r="39.3701" /> 
<circle cx="95750" cy="78500" r="39.3701" /> 
<circle cx="93750" cy="79500" r="39.3701" /> 
<circle cx="94750" cy="79500" r="39.3701" /> 
<circle cx="95750" cy="79500" r="39.3701" /> 
<circle cx="96750" cy="79500" r="39.3701" /> 
<circle cx="93750" cy="87000" r="39.3701" /> 
<circle cx="93750" cy="88000" r="39.3701" /> 
<circle cx="93750" cy="89000" r="39.3701" /> 
</g> 
</svg>
